<?xml version="1.0" encoding="utf-8"?>
<!DOCTYPE svg PUBLIC "-//W3C//DTD SVG 1.0//EN" "http://www.w3.org/TR/2001/REC-SVG-20010904/DTD/svg10.dtd">
<svg version="1.0" xmlns="http://www.w3.org/2000/svg" width="375px" height="98px" viewBox="0 0 375 98" preserveAspectRatio="xMidYMid meet">
 
 <g fill="#ffffff">
  <path d="M36.7 96.5 c-21.4 -5.9 -36.7 -25.6 -36.7 -47.5 0 -22.1 15.4 -41.8 37.1 -47.5 33 -8.8 65.5 20.2 60.8 54.3 -2.6 18.9 -17.7 35.8 -36.4 40.7 -7.1 1.8 -18.2 1.8 -24.8 0z m28.1 -2.6 c23.1 -8 36.8 -32.9 30.7 -56.2 -6.3 -24.1 -29.2 -39.4 -53.2 -35.7 -20.8 3.3 -37 19.4 -40.3 40.3 -3.1 19.8 8 40.6 26.2 49.2 12.2 5.8 24.5 6.6 36.6 2.4z"/>
  <path d="M41.7 91.3 c-2 -1.9 0.1 -7.3 2.8 -7.3 0.5 0 0.2 0.5 -0.7 1.1 -2.1 1.2 -2.3 4 -0.6 5.7 0.7 0.7 0.8 1.2 0.2 1.2 -0.6 0 -1.4 -0.3 -1.7 -0.7z"/>
  <path d="M46.2 89 c0 -1.9 0.2 -2.7 0.5 -1.7 0.2 0.9 0.2 2.5 0 3.5 -0.3 0.9 -0.5 0.1 -0.5 -1.8z"/>
  <path d="M48.8 88.5 c-0.2 -2.1 0 -3.5 0.7 -3.5 0.7 0 0.9 1.4 0.7 3.5 -0.2 1.9 -0.5 3.5 -0.7 3.5 -0.2 0 -0.5 -1.6 -0.7 -3.5z"/>
  <path d="M54.2 88.6 c-1.6 -3.6 -1.5 -4.1 0.4 -2.2 0.8 0.9 1.4 2.4 1.2 3.3 -0.2 1.3 -0.6 1 -1.6 -1.1z"/>
  <path d="M33.7 89.4 c-1.2 -1.2 -0.8 -3.9 0.9 -6 1.5 -1.8 1.5 -1.8 0.5 0.3 -1.4 2.7 -1.4 4.3 -0.1 4.3 0.6 0 1.5 -1.1 2 -2.5 0.5 -1.4 1.2 -2.5 1.5 -2.5 0.3 0 -0.1 1.4 -0.8 3.2 -1.3 3.2 -2.8 4.4 -4 3.2z"/>
  <path d="M60.5 87 c-0.9 -1.8 -1.4 -3.4 -1.1 -3.8 0.3 -0.3 1.1 0.9 1.7 2.6 0.6 1.8 1.5 3.2 2 3.2 1.2 0 1.1 -1.2 -0.2 -4.7 -0.7 -2 -0.7 -2.5 0.1 -1.7 1.5 1.5 1.8 6.6 0.3 7.1 -0.6 0.2 -1.9 -1 -2.8 -2.7z"/>
  <path d="M27.4 85.5 c-0.9 -2.2 2.3 -6.6 4.1 -5.9 1.8 0.7 1.9 2.7 0.5 5.5 -1.3 2.3 -3.8 2.5 -4.6 0.4z m4.6 -3.1 c0 -1.8 -1.4 -1.8 -3 0.1 -1.6 1.9 -0.3 4 1.6 2.4 0.8 -0.6 1.4 -1.8 1.4 -2.5z"/>
  <path d="M65.5 84 c-0.9 -1.6 -1.1 -3 -0.6 -3 1.3 0 2.5 2 2.6 4.2 0.2 2.5 -0.2 2.2 -2 -1.2z"/>
  <path d="M68.8 83.3 c-1.3 -2.5 -1.2 -3 0.4 -4.7 1.7 -1.9 1.8 -1.9 3.8 -0.1 2 1.9 2.9 0.8 0.9 -1.2 -0.8 -0.8 -0.7 -1.7 0.2 -3.4 1.2 -2.1 1.4 -2.2 1.7 -0.6 0.2 1.1 1 1.6 1.7 1.3 1 -0.3 1.2 0 0.8 1.1 -0.5 1.2 -0.2 1.5 1 1 0.9 -0.3 1.7 -0.3 1.7 0.2 0 1.9 -1.5 1.9 -4.2 -0.1 l-3 -2.1 1.7 3.3 c2.2 4.2 1.4 4.8 -2.6 1.9 -3.2 -2.2 -3.2 -1.3 -0.1 2.4 0.8 0.9 1.1 1.7 0.6 1.7 -0.5 0 -1.5 -0.9 -2.2 -2.1 -1.7 -2.7 -2.7 -1.8 -1.2 1.1 0.6 1.2 0.9 2.4 0.7 2.6 -0.3 0.3 -1.1 -0.7 -1.9 -2.3z"/>
  <path d="M24.9 82.1 c1.3 -2.3 0.2 -3.5 -1.7 -1.8 -1.1 0.9 -1.1 0.4 0.2 -1.5 1.6 -2.4 1.6 -2.8 0.3 -2.8 -3 0 -4.6 1.1 -3.9 2.8 0.5 1.5 0.4 1.5 -1.1 0.3 -2.2 -1.8 -2.2 -1.9 1.4 -3.4 3.1 -1.2 3.1 -1.2 1.2 -3.5 -2 -2.5 -5.3 -2.2 -5.3 0.5 0 1.3 0.3 1.3 1.5 0.3 0.8 -0.7 1.5 -0.8 1.5 -0.2 0 0.5 -0.6 1.5 -1.4 2.1 -1 0.9 -1.7 0.7 -2.7 -0.5 -1.1 -1.4 -1 -1.9 1 -3.5 1.3 -1.1 2.9 -1.9 3.6 -1.9 1.3 0 6.7 7.2 6.4 8.6 -0.4 2.1 0.2 2.5 1.8 1.3 1.1 -0.9 1 -0.3 -0.6 1.9 -2.4 3.5 -3.8 4.3 -2.2 1.3z"/>
  <path d="M40.4 77.9 c-8.7 -2.5 -18.1 -12.2 -20.5 -21.2 -2.7 -10 1.2 -23.1 8.8 -29.8 8.3 -7.2 20.1 -9.8 30.2 -6.4 6.9 2.3 15.2 9.9 18.1 16.6 3 7.1 3 16.7 0 23.8 -2.8 6.5 -11.2 14.3 -17.6 16.5 -5.1 1.7 -14 2 -19 0.5z m18.8 -1.9 c7.4 -2.8 12.2 -7 15.7 -14.2 7.8 -15.5 0.6 -33.7 -15.7 -39.8 -11.1 -4.2 -21.6 -1.8 -30.3 6.9 -8.5 8.5 -10.7 17.6 -7.3 29.1 2.1 7.2 10.9 16.2 18 18.4 6.8 2.1 13.4 1.9 19.6 -0.4z"/>
  <path d="M47 70.5 c-0.7 -0.8 -1 -2.4 -0.7 -3.6 0.4 -1.3 0 -2.2 -1.1 -2.6 -3.1 -1.2 -4.3 -4.3 -1.7 -4.3 0.8 0 1.5 -0.4 1.5 -1 0 -0.5 -1.1 -1 -2.3 -1 -2.1 0 -5.7 -2.7 -5.7 -4.3 0 -0.3 1 -0.7 2.3 -0.9 3.4 -0.5 2.6 -2.3 -1.3 -2.6 -5.6 -0.5 -8.3 -5.2 -3 -5.2 1.7 0 3 -0.4 3 -1 0 -0.5 -1.8 -1 -3.9 -1 -3.7 0 -7.1 -1.9 -7.1 -4.1 0 -1.2 14 -1.2 16 0 1 0.7 1.9 0.2 3.1 -1.9 2.3 -3.8 5.4 -5.4 7.7 -4.1 1.6 1 1.6 1 0 1.1 -1.9 0 -2.4 2.6 -0.9 4.9 0.7 1 1.3 1.1 3 0.2 1.2 -0.7 5.2 -1.1 9.4 -0.9 l7.2 0.3 -2.2 2.3 c-1.6 1.5 -3.5 2.2 -6.4 2.2 -2.8 0 -3.9 0.4 -3.6 1.3 0.2 0.7 1.5 1.1 3 0.9 1.8 -0.2 2.7 0.1 2.7 1.1 0 2 -2 3.5 -5.4 3.9 -3.4 0.4 -4.8 2.8 -1.7 2.8 1.2 0 2.1 0.6 2.1 1.3 0 2 -2.2 3.7 -4.7 3.7 -1.3 0 -2.3 0.5 -2.3 1 0 0.6 0.5 1 1 1 1.8 0 1 2.9 -1.1 4 -1.3 0.7 -1.8 1.7 -1.5 2.7 0.6 1.5 -1.9 5.3 -3.4 5.3 -0.4 0 -1.3 -0.7 -2 -1.5z"/>
  <path d="M79.2 73 c-2.4 -2 -2.2 -4 0.3 -4 0.7 0 1.2 -0.8 1 -1.7 -0.1 -1 0 -1.2 0.2 -0.5 0.4 1 0.8 1.1 1.9 0.1 1.2 -1 1.8 -0.9 3.2 0.4 1.3 1.4 1.4 1.9 0.3 2.9 -1.1 1.1 -1.3 1 -0.8 -0.4 0.8 -2.2 -0.4 -3 -2.3 -1.5 -1.6 1.3 -1.9 3.5 -0.7 5.5 1.2 1.8 -0.5 1.4 -3.1 -0.8z"/>
  <path d="M12.7 68.9 c0.7 -0.7 2.2 -1.3 3.3 -1.4 2.6 -0.2 1.3 1 -2 2 -2 0.6 -2.3 0.5 -1.3 -0.6z"/>
  <path d="M11 66.5 c0 -0.2 1.4 -1.1 3 -2 2.6 -1.3 3 -1.4 3 -0.1 0 0.8 -0.4 1.8 -1 2.1 -0.5 0.3 -1 0.1 -1 -0.6 0 -1 -0.3 -1 -1.2 -0.1 -1.2 1.2 -2.8 1.6 -2.8 0.7z"/>
  <path d="M84 64.5 c-1.4 -0.8 -2 -1.4 -1.5 -1.4 0.6 0 2.1 0.6 3.5 1.4 1.4 0.8 2.1 1.4 1.5 1.4 -0.5 0 -2.1 -0.6 -3.5 -1.4z"/>
  <path d="M10.7 63.4 c0.3 -0.9 0 -2 -0.8 -2.5 -1 -0.6 -0.8 -0.9 0.9 -0.9 1.3 0 2 0.4 1.7 1 -0.3 0.6 -0.1 1 0.4 1 0.6 0 1.1 -0.4 1.1 -1 0 -0.5 0.5 -1 1.1 -1 1.5 0 -0.7 2.7 -3.2 4.1 -1.5 0.8 -1.7 0.6 -1.2 -0.7z"/>
  <path d="M86.2 61.9 c-1.3 -0.5 -2.8 -0.7 -3.3 -0.3 -1.8 1 -0.9 -1.6 1.2 -3.7 1.7 -1.7 1.9 -2.3 0.8 -3.1 -1.1 -0.8 -1.1 -0.8 0.1 -0.4 0.8 0.3 2.3 0.9 3.3 1.2 0.9 0.4 1.7 1.1 1.7 1.6 0 0.5 -0.5 0.6 -1 0.3 -1.3 -0.8 -5 0.3 -5 1.5 0 0.6 1.1 1.2 2.5 1.6 1.4 0.3 2.5 1 2.5 1.5 0 0.5 -0.1 0.9 -0.2 0.8 -0.2 0 -1.4 -0.4 -2.6 -1z"/>
  <path d="M9.3 57.9 c2.1 -1.2 2.3 -3.3 0.2 -2.5 -0.8 0.3 -1.5 0.2 -1.5 -0.3 0 -0.5 1.4 -1.1 3 -1.3 2.1 -0.3 2.7 -0.1 2 0.6 -1.5 1.5 -1.2 2.6 0.7 2.6 2.5 0 1.2 0.6 -2.7 1.3 -2.7 0.5 -3.1 0.4 -1.7 -0.4z"/>
  <path d="M12 43 c-1.4 -1.1 -2.2 -2 -1.8 -2 1.4 0 5.8 2.3 5.8 3.2 0 1.3 -1.3 0.9 -4 -1.2z"/>
  <path d="M82 43.1 c-1.3 -2.5 -1.3 -5.1 0 -5.1 0.5 0 0.7 0.6 0.4 1.3 -0.6 1.7 2.1 4.1 3.6 3.2 0.5 -0.3 1 -0.2 1 0.3 0 0.8 -2.2 2.2 -3.5 2.2 -0.3 0 -0.9 -0.9 -1.5 -1.9z"/>
  <path d="M14.6 39.4 c-0.3 -0.8 -1 -1.3 -1.5 -1 -0.5 0.4 -1.2 0 -1.5 -0.6 -0.5 -1 -0.7 -1 -1.2 0 -0.7 1.5 -2.4 1.6 -2.4 0.1 0 -0.7 -0.8 -1.7 -1.7 -2.4 -1.5 -1.1 -1.3 -1.3 1.7 -1.1 1.8 0.1 3.5 0.7 3.8 1.4 0.2 0.6 0.9 1.2 1.7 1.2 1.7 0 3.8 2.7 2.7 3.4 -0.6 0.3 -1.3 -0.1 -1.6 -1z"/>
  <path d="M18 35.7 c0 -0.8 -0.9 -2.2 -2 -3.2 -1.6 -1.5 -2.2 -1.6 -3.5 -0.5 -1.3 1.1 -1.9 1 -3.5 -0.5 -2.2 -1.9 -2 -3.3 0.2 -1.9 0.7 0.5 2.8 0.9 4.7 0.9 2.9 0 3.6 0.5 4.8 3.3 0.8 1.9 0.9 3.2 0.3 3.2 -0.5 0 -1 -0.6 -1 -1.3z"/>
  <path d="M82.5 36 c-1.1 -0.5 -1.4 -0.9 -0.7 -0.9 0.8 -0.1 1 -0.6 0.6 -1.3 -0.4 -0.7 0.2 -0.4 1.4 0.6 3.2 2.8 2.7 3.3 -1.3 1.6z"/>
  <path d="M87.5 33.2 c-1.1 -0.7 -1.8 -5.2 -0.9 -5.2 0.2 0 0.9 1.1 1.4 2.5 0.6 1.6 1.4 2.3 2.5 1.9 0.8 -0.3 1.5 -0.1 1.5 0.5 0 1.2 -2.9 1.5 -4.5 0.3z"/>
  <path d="M77 32.3 c0.1 -0.5 1.6 -1.5 3.5 -2.4 3.1 -1.5 3.6 -1.5 4.7 -0.1 1.1 1.3 1 1.5 -0.5 0.9 -1.1 -0.4 -2.8 -0.1 -4 0.8 -2.3 1.6 -3.7 1.9 -3.7 0.8z"/>
  <path d="M22 26.1 c1.4 -2.6 1.3 -3.8 -0.2 -2.3 -1.8 1.8 -3.3 1.5 -1.7 -0.4 1 -1.3 1 -1.9 0 -3.6 -0.7 -1.1 -1 -2.3 -0.6 -2.6 0.3 -0.4 1 0 1.4 0.7 0.6 0.9 1.1 1 1.5 0.2 1.1 -1.6 2.6 -1.3 2 0.4 -0.7 1.8 0.9 1.9 3.8 0.4 2.5 -1.3 3.5 -0.4 1.8 1.7 -0.8 0.9 -2.3 1.4 -3.7 1.1 -1.7 -0.3 -2.3 0 -2.3 1.4 0 2.5 -1.1 4.9 -2.1 4.9 -0.6 0 -0.5 -0.8 0.1 -1.9z"/>
  <path d="M69.6 24.4 c-0.3 -0.9 -0.6 -1.6 -0.6 -1.7 0 -0.1 1.7 -0.2 3.8 -0.2 4.9 0.1 5.5 -0.3 3.6 -2.2 -1.7 -1.8 -0.9 -3.1 2.5 -3.8 1.8 -0.3 2.1 -0.1 1.6 1.5 -0.5 1.6 -0.3 1.9 1.2 1.4 1.6 -0.5 1.6 -0.4 -0.2 1.1 -1.1 0.9 -2 2.1 -2 2.8 0 0.8 -1.2 1.1 -3.4 0.9 -2.2 -0.3 -3.1 0 -2.7 0.7 0.4 0.7 -0.1 1.1 -1.2 1.1 -1.1 0 -2.3 -0.7 -2.6 -1.6z"/>
  <path d="M70.8 19.3 c-1 -0.2 -1.8 -0.8 -1.8 -1.3 0 -1.8 1.6 -1.8 3.9 0.1 2.2 1.8 1.6 2.2 -2.1 1.2z"/>
  <path d="M58 18.8 c0 -0.3 0.9 -2.7 1.9 -5.1 2.2 -5.1 2 -5.7 -2 -5.7 -1.5 0 -3.1 -0.4 -3.4 -1 -0.6 -1 1.7 -0.7 9.5 1 2.5 0.6 2.8 0.8 1.1 0.9 -2 0.1 -2.1 0.3 -1.1 1.6 1.5 1.8 0.6 4.5 -1.4 4.5 -0.8 0 -2.2 1 -3 2.2 -0.9 1.2 -1.6 2 -1.6 1.6z"/>
  <path d="M35 17 c0 -0.5 0.5 -1 1 -1 1.4 0 1.2 -1.6 -0.3 -3.2 -1 -1 -1 -1.8 -0.2 -3.5 1.1 -2.1 1.2 -2.1 2.3 -0.3 0.7 1.2 0.8 2.1 0.2 2.5 -0.6 0.3 -1 1.1 -1 1.6 0 0.6 0.5 0.7 1 0.4 1.4 -0.9 1.2 1.9 -0.2 3.3 -1.5 1.5 -2.8 1.6 -2.8 0.2z"/>
  <path d="M74 16.5 c0.7 -0.8 1.7 -1.5 2.2 -1.5 0.6 0 0.5 0.7 -0.2 1.5 -0.7 0.8 -1.7 1.5 -2.2 1.5 -0.6 0 -0.5 -0.7 0.2 -1.5z"/>
  <path d="M43.5 14.9 c0.4 -1 0.2 -2.7 -0.4 -3.6 -0.9 -1.5 -1 -1.3 -1.1 1.5 0 1.7 -0.4 3.2 -0.8 3.2 -1.1 0 -0.3 -6.1 1 -7.7 0.5 -0.7 0.7 -1.7 0.3 -2.3 -0.3 -0.5 -0.2 -1 0.3 -1 0.5 0 1.5 1.4 2.2 3.1 0.9 2 1.8 2.8 2.8 2.4 1 -0.4 1.2 0 0.8 1.1 -0.4 1 0.1 2.5 1 3.5 1 1.1 1.2 1.9 0.6 1.9 -0.6 0 -1.2 -0.5 -1.4 -1.2 -0.3 -0.7 -0.9 -0.8 -1.9 -0.3 -2.6 1.7 -4 1.4 -3.4 -0.6z m2.3 -3.6 c-1.3 -1.2 -1.4 -1 -1 1.8 0.4 2.7 0.6 2.9 1.4 1.4 0.7 -1.2 0.6 -2.1 -0.4 -3.2z"/>
  <path d="M57 12.6 c0 -0.8 0.5 -1.8 1 -2.1 0.6 -0.3 1 0.1 1 0.9 0 0.8 -0.4 1.8 -1 2.1 -0.5 0.3 -1 -0.1 -1 -0.9z"/>
  <path d="M71 95.1 c0.8 -0.4 4.9 -1.6 9 -2.5 4.1 -0.9 8 -2 8.7 -2.4 0.6 -0.4 2.1 -4.6 3.3 -9.2 1.2 -4.7 2.5 -8.7 2.8 -9 0.8 -0.8 -0.8 8.2 -2.5 13.8 l-1.7 5.3 -6.5 1.9 c-7.8 2.2 -15.3 3.5 -13.1 2.1z"/>
  <path d="M19.2 94 c-1.8 -0.4 -5.3 -1.5 -7.7 -2.5 -4.1 -1.5 -4.6 -2.1 -5.9 -6.8 -2.4 -8.4 -3.1 -13.1 -1.7 -12.3 0.6 0.4 1.1 1.7 1.1 2.8 0 1.2 0.7 4.7 1.6 7.9 1.8 6.3 2.5 6.8 11.4 8.9 3 0.7 6.4 1.6 7.5 2 1.8 0.8 1.8 0.9 -0.5 0.8 -1.4 0 -4 -0.4 -5.8 -0.8z"/>
  <path d="M119 70 c0 -3.8 0.4 -5.9 1 -5.5 0.6 0.3 1 1.5 1 2.6 0 1.4 0.7 1.9 2.5 1.9 1.8 0 2.5 -0.5 2.5 -1.9 0 -1.1 0.5 -2.3 1 -2.6 0.6 -0.4 1 1.7 1 5.5 0 3.8 -0.4 5.9 -1 5.5 -0.5 -0.3 -1 -1.7 -1 -3.1 0 -1.9 -0.5 -2.4 -2.5 -2.4 -2 0 -2.5 0.5 -2.5 2.4 0 1.4 -0.4 2.8 -1 3.1 -0.6 0.4 -1 -1.7 -1 -5.5z"/>
  <path d="M131.1 75.4 c-0.2 -2.3 4.2 -11.4 5.4 -11.4 1.4 0 6.1 10.7 5.2 11.6 -0.3 0.3 -1 -0.4 -1.7 -1.5 -1.4 -2.8 -5.3 -2.7 -7.3 0.2 -0.9 1.2 -1.6 1.7 -1.6 1.1z m6.9 -5.6 c0 -0.7 -0.4 -1.9 -0.9 -2.6 -0.7 -1.1 -1 -1 -1.5 0.3 -1 2.6 -0.7 3.5 0.9 3.5 0.8 0 1.5 -0.6 1.5 -1.2z"/>
  <path d="M145 70.1 c0 -7.4 1.6 -8 5.1 -1.8 l2.4 4.2 0.3 -4.2 c0.2 -2.4 0.7 -4.3 1.3 -4.3 1.2 0 1.2 10.7 -0.1 11.5 -0.5 0.3 -2.3 -1.5 -4 -4.1 l-3 -4.8 0 4.1 c0 2.3 -0.4 4.5 -1 4.8 -0.6 0.4 -1 -1.7 -1 -5.4z"/>
  <path d="M160 74 c-4 -4 -1.2 -10 4.7 -10 3.5 0 3.7 1.8 0.2 2.2 -3.9 0.4 -5.9 3 -4.3 5.6 1.5 2.3 5.4 2.9 5.4 0.8 0 -0.9 -0.4 -1.6 -1 -1.6 -0.5 0 -1 -0.4 -1 -1 0 -0.5 0.9 -1 2 -1 1.5 0 2 0.7 2 2.9 0 4.4 -4.5 5.6 -8 2.1z"/>
  <path d="M175.3 75.3 c-2.4 -0.2 -4.3 -0.7 -4.3 -1.1 0.1 -0.4 1.4 -2.3 3.1 -4.2 l3 -3.5 -3.1 -0.3 c-4.7 -0.5 -3.5 -2.2 1.5 -2.2 5.6 0 5.7 1.2 0.8 6.2 l-3.7 3.8 3.7 0 c2 0 3.7 0.5 3.7 1 0 0.6 -0.1 0.9 -0.2 0.8 -0.2 -0.1 -2.2 -0.3 -4.5 -0.5z"/>
  <path d="M183.8 75.4 c-1.2 -1.1 -1 -11.4 0.2 -11.4 0.6 0 1 1.1 1 2.5 0 2.1 0.5 2.5 3 2.5 2.5 0 3 -0.4 3 -2.5 0 -1.4 0.5 -2.5 1 -2.5 0.6 0 1 2.4 1 5.4 0 3 -0.4 5.8 -1 6.1 -0.6 0.4 -1 -0.7 -1 -2.4 0 -2.8 -0.3 -3.1 -2.9 -3.1 -2.6 0 -3 0.4 -3.3 3.1 -0.2 1.7 -0.6 2.7 -1 2.3z"/>
  <path d="M198.3 74.5 c-4.4 -3.1 -2.1 -10.5 3.2 -10.5 1.3 0 3.1 0.7 3.9 1.6 1.7 1.6 2.1 6.1 0.8 8.1 -1.3 2 -5.6 2.5 -7.9 0.8z m6.2 -4.5 c0 -3 -0.3 -3.5 -2.7 -3.8 -3 -0.4 -4.4 2.3 -3.3 5.9 0.5 1.5 1.4 1.9 3.3 1.7 2.4 -0.3 2.7 -0.8 2.7 -3.8z"/>
  <path d="M211.6 74.4 c-1.7 -1.7 -2.2 -8.9 -0.7 -9.9 0.6 -0.3 1.1 1.6 1.3 4.2 0.3 4.4 0.5 4.8 2.8 4.8 2.3 0 2.5 -0.4 2.8 -4.7 0.4 -6.3 2.2 -6.2 2.2 0.2 0 3.8 -0.4 5.2 -1.9 6 -2.7 1.4 -4.7 1.3 -6.5 -0.6z"/>
  <path d="M230 74 c-1.1 -1.1 -2 -2.9 -2 -4 0 -2.6 3.4 -6 5.9 -6 3.1 0 3.4 1.8 0.5 2.2 -3.5 0.4 -5.3 3.1 -3.8 5.6 0.6 0.9 2.3 1.8 3.8 2 1.4 0.2 2.4 0.8 2.1 1.3 -1 1.6 -4.4 1 -6.5 -1.1z"/>
  <path d="M240 70 c0 -3.8 0.4 -5.9 1 -5.5 0.6 0.3 1 2.8 1 5.5 0 2.7 -0.4 5.2 -1 5.5 -0.6 0.4 -1 -1.7 -1 -5.5z"/>
  <path d="M248 71.1 c0 -4.4 -0.3 -5.1 -2 -5.1 -1.1 0 -2 -0.4 -2 -1 0 -0.5 2 -1 4.5 -1 2.5 0 4.5 0.5 4.5 1 0 0.6 -0.7 1 -1.5 1 -1.1 0 -1.5 1.2 -1.5 4.4 0 2.5 -0.4 4.8 -1 5.1 -0.6 0.4 -1 -1.3 -1 -4.4z"/>
  <path d="M258.7 75.4 c-0.4 -0.4 -0.7 -1.7 -0.7 -2.9 0 -1.2 -0.7 -3 -1.5 -4.1 -2.5 -3.3 -1.7 -5.2 0.9 -2.1 l2.3 2.8 1.7 -2.6 c1 -1.5 2 -2.4 2.3 -2.1 0.3 0.3 -0.2 1.8 -1.2 3.3 -1 1.5 -2.1 4 -2.4 5.6 -0.3 1.6 -0.9 2.5 -1.4 2.1z"/>
  <path d="M273.8 74.9 c-1.3 -0.7 -1.8 -2.3 -1.8 -5.9 0 -6.4 1.8 -6.5 2.2 -0.2 0.3 4.3 0.5 4.7 2.8 4.7 2.3 0 2.5 -0.4 2.8 -4.8 0.4 -5.6 2.2 -5.4 2.2 0.3 0 5.9 -3.7 8.6 -8.2 5.9z"/>
  <path d="M285.6 74.9 c-0.4 -0.9 -0.6 -3.6 -0.4 -6 0.4 -5.6 2.5 -5.8 5.3 -0.7 1.1 2.1 2.3 3.8 2.8 3.8 0.4 0 0.7 -1.8 0.7 -4.1 0 -2.6 0.4 -3.8 1.1 -3.4 1.4 0.9 0.7 10.7 -0.8 11.2 -0.6 0.2 -2.4 -1.7 -4 -4.4 l-2.8 -4.8 -0.6 5 c-0.3 3.4 -0.8 4.5 -1.3 3.4z"/>
  <path d="M306.6 72.8 c-0.8 -1.9 -1.8 -4.7 -2.2 -6.3 -1.1 -4.4 1.3 -2.2 2.7 2.5 1.2 4 2.9 5.4 2.9 2.5 0 -2.1 3 -7.8 3.7 -7.2 0.8 0.8 -2.7 9.5 -4.3 10.8 -1.1 0.9 -1.7 0.4 -2.8 -2.3z"/>
  <path d="M320.3 75.3 c-3.3 -0.4 -3.3 -0.5 -3.3 -5.9 l0 -5.4 3.5 0 c1.9 0 3.5 0.5 3.5 1 0 0.6 -1.1 1 -2.5 1 -1.6 0 -2.5 0.6 -2.5 1.5 0 0.9 1 1.5 2.6 1.5 1.4 0 2.3 0.4 1.9 1 -0.3 0.6 -1.5 1 -2.6 1 -1 0 -1.9 0.7 -1.9 1.5 0 0.9 0.9 1.5 2.5 1.5 1.4 0 2.5 0.5 2.5 1 0 0.6 -0.1 0.9 -0.2 0.8 -0.2 0 -1.8 -0.3 -3.5 -0.5z"/>
  <path d="M327.8 75.4 c-0.5 -0.4 -0.8 -2.9 -0.8 -5.6 0 -5.3 1.2 -6.5 5.5 -5.4 2.7 0.7 3.5 4.2 1.5 6.2 -0.8 0.8 -0.6 1.5 0.5 2.4 0.8 0.7 1.5 1.7 1.5 2.3 0 0.6 -1.3 -0.1 -2.8 -1.6 -3.5 -3.3 -4 -3.4 -4.4 -0.1 -0.2 1.4 -0.6 2.2 -1 1.8z m5 -7.7 c0.2 -1.2 -0.3 -1.7 -1.7 -1.7 -1.5 0 -2.1 0.6 -2.1 2.1 0 2.5 3.3 2.2 3.8 -0.4z"/>
  <path d="M339 75 c-1.1 -0.7 -0.7 -1 1.7 -1 4.2 0 5.1 -1.7 1.6 -3.2 -1.5 -0.7 -3.1 -1.7 -3.5 -2.2 -1.2 -1.7 1.2 -4.6 3.7 -4.6 3.4 0 4.1 1.8 0.8 2.2 -3.4 0.4 -3.7 2.2 -0.5 2.6 3.1 0.5 4.6 3.6 2.6 5.6 -1.8 1.8 -4.2 2 -6.4 0.6z"/>
  <path d="M350 70 c0 -3.8 0.4 -5.9 1 -5.5 0.6 0.3 1 2.8 1 5.5 0 2.7 -0.4 5.2 -1 5.5 -0.6 0.4 -1 -1.7 -1 -5.5z"/>
  <path d="M357.8 75.4 c-0.5 -0.4 -0.8 -2.7 -0.8 -5.1 0 -3.2 -0.4 -4.3 -1.5 -4.3 -0.8 0 -1.5 -0.4 -1.5 -1 0 -0.5 2 -1 4.5 -1 2.5 0 4.5 0.5 4.5 1 0 0.6 -0.9 1 -1.9 1 -1.7 0 -2 0.8 -2.3 5.1 -0.2 2.8 -0.6 4.7 -1 4.3z"/>
  <path d="M368.8 75.4 c-0.5 -0.4 -0.8 -1.7 -0.8 -2.9 0 -1.2 -1 -3.4 -2.1 -4.9 -1.2 -1.5 -1.8 -3 -1.4 -3.4 0.4 -0.4 1.6 0.5 2.7 2.1 l2 2.7 2 -2.5 c2.7 -3.5 3.6 -2.4 1 1.2 -1.1 1.6 -2.2 4.1 -2.4 5.7 -0.1 1.5 -0.6 2.4 -1 2z"/>
  <path d="M299 69.5 c0 -3 0.5 -5.5 1 -5.5 0.6 0 1 2.5 1 5.5 0 3 -0.4 5.5 -1 5.5 -0.5 0 -1 -2.5 -1 -5.5z"/>
  <path d="M275.7 48.3 c0.6 -10.7 0.5 -11.3 -1.3 -11.3 -1.8 -0.1 -1.8 -0.1 -0.1 -1.4 2.1 -1.6 2.4 -6.1 0.3 -5.3 -0.7 0.3 -4.6 1.5 -8.5 2.7 -5.7 1.7 -7.6 1.9 -8.7 0.9 -2.1 -1.8 -1.7 -2.5 1.8 -2.7 1.7 -0.2 8.7 -1.6 15.4 -3.3 13.3 -3.3 18.2 -3.5 12.7 -0.6 -1.8 0.9 -4.6 1.7 -6.3 1.7 -1.6 0 -3 0.4 -3 0.9 0 2 1.3 4.1 2.1 3.5 1.5 -0.9 4.8 0.6 5.9 2.6 1.4 2.7 -0.4 6.7 -4 8.8 -2.3 1.3 -3.2 2.8 -4 6.7 -2 9.7 -3 8.4 -2.3 -3.2z m8.3 -9.6 c0 -2.2 -1.8 -4 -3.4 -3.4 -1.2 0.5 -1.6 1.9 -1.6 5.4 l0.1 4.8 2.4 -2.8 c1.4 -1.5 2.5 -3.3 2.5 -4z"/>
  <path d="M121.2 53 c-1.6 -2.6 0.5 -14.3 2.8 -15.7 1.3 -0.9 1.4 0 0.8 8.1 -0.3 5 -0.7 9.2 -0.7 9.4 -0.3 0.8 -1.8 -0.1 -2.9 -1.8z"/>
  <path d="M143.2 51.4 c4.2 -4.4 6.8 -9.9 6.8 -14.4 0 -2.8 -0.3 -3 -3.4 -3 -1.9 0 -3.7 -0.6 -4 -1.2 -0.3 -0.9 -1.6 -0.1 -3.5 2.2 -2.6 2.9 -3.1 4.3 -3.1 8.6 0 6.3 -1.7 8.3 -5.6 6.6 -3.9 -1.8 -4 -4 -0.5 -7.6 3.8 -4 4.1 -7.3 0.6 -8.2 -3.2 -0.8 -3.2 -2.8 0.1 -4.3 2.3 -1 2.5 -1.6 2.2 -5.4 -0.1 -2.3 0 -4.3 0.5 -4.4 2.1 -0.8 2.7 0.1 2.7 3.7 0 3.3 0.3 4 1.8 3.8 1.3 -0.2 1.6 0.3 1.5 2.2 l-0.3 2.5 2.5 -2.8 c1.3 -1.5 3 -4.5 3.6 -6.7 1.3 -4.2 2.5 -4.6 4.3 -1.7 0.8 1.2 0.5 2.7 -1.1 5.8 l-2.2 4.3 3.9 1.7 c2.8 1.3 4 2.5 4.5 4.7 1.2 5.7 -5.4 14.6 -12.5 16.7 -2.3 0.7 -2.2 0.4 1.2 -3.1z m-9.8 -4.6 c1 -3.9 0.7 -5.8 -0.8 -5.2 -2 0.8 -4.8 5.2 -4.1 6.4 1.1 1.9 4.3 1 4.9 -1.2z"/>
  <path d="M309 54 c-2 -1.2 -0.5 -2.7 4.6 -4.5 2.2 -0.8 3.1 -1.4 2.2 -1.5 -2.2 0 -2.3 -1.3 -0.3 -3 2.1 -1.8 1.3 -2.2 -1.9 -1.1 -1.4 0.6 -2.6 0.7 -2.6 0.2 0 -0.5 2.3 -1.7 5 -2.7 4.8 -1.7 9.7 -5.4 7.2 -5.4 -3.7 0 -21.2 8.3 -21.2 10.1 0 0.5 -0.6 0.9 -1.4 0.9 -2.4 0 -2.9 -3.7 -0.9 -6.4 2.1 -2.9 3 -3.2 3.5 -1.2 0.2 1.1 2.2 0.8 9.6 -1.6 7.9 -2.5 9.1 -3.2 8.1 -4.4 -1 -1.2 -1.4 -1.2 -2.6 0.5 -0.7 1.2 -2 1.8 -2.8 1.5 -1.9 -0.8 -1.9 -2.3 0 -4.4 1.2 -1.3 1.3 -2.2 0.3 -4.7 -1.2 -3.1 -0.6 -6.3 1.2 -6.3 0.5 0 1 1.9 1 4.3 0 3.1 0.3 3.8 1 2.7 0.9 -1.3 1.3 -1.2 2.6 0.5 1.5 1.9 1.5 1.8 1.2 -1.5 -0.2 -2.8 0.1 -3.5 1.6 -3.8 1.6 -0.4 1.8 0 1.2 3.5 -0.4 2.1 -1 4.8 -1.3 6.1 -0.4 1.8 -0.1 2.2 2.1 2.2 3.5 0 3.4 2.5 -0.1 4.7 -3.6 2.2 -8.3 6.4 -8.3 7.5 0 0.4 1.5 1.4 3.3 2.2 1.9 0.9 2.5 1.5 1.5 1.5 -1 0.1 -1.8 0.8 -1.8 1.6 0 3 -8.4 4.8 -12 2.5z m7 -2 c1.2 -0.8 1.1 -1 -0.7 -1 -1.2 0 -2.5 0.5 -2.8 1 -0.8 1.3 1.5 1.3 3.5 0z"/>
  <path d="M245.3 51.2 l-3.2 -3.3 -2.5 2.6 c-3.9 3.9 -5.1 3 -2.2 -1.9 3.1 -5.3 3.1 -5.8 0.6 -11.5 -1.7 -3.6 -2.3 -4.1 -3.4 -3.2 -1.3 1.1 -1.2 1.5 0.5 3.2 1.4 1.4 1.8 2.7 1.3 4.7 -1 4.4 -3.8 9.7 -4.9 9.2 -0.5 -0.3 -0.8 -0.9 -0.6 -1.5 0.2 -0.5 0.9 -3 1.4 -5.4 0.9 -3.7 0.8 -4.5 -0.5 -5.5 -1.1 -0.8 -1.4 -1.7 -0.7 -2.7 1.5 -2.4 1 -3.7 -1.2 -3.2 -1.9 0.5 -2.1 1.1 -1.5 5.9 0.8 7.2 -0.5 10.4 -4.4 10.4 -3.7 0 -3.7 -0.2 -0.4 -3.5 2.2 -2.2 2.5 -3.4 2.4 -7.8 -0.3 -7.6 -0.2 -8.1 1.3 -6.8 1.1 0.8 1.9 0.5 3.7 -1.4 l2.4 -2.5 -2.2 -3 c-2.8 -3.7 -2.7 -4 0.1 -4 1.9 0 2.8 1 4.2 4.3 1 2.3 1.8 4.4 1.9 4.7 0.1 0.3 0.9 2.6 1.9 5.3 1.8 4.6 3.7 6.2 3.7 3.2 0 -0.8 0.7 -1.5 1.5 -1.5 1.8 0 1.9 1.8 0.5 5.6 -0.9 2.2 -0.6 3.2 1.5 6 1.5 1.9 2.5 4.2 2.3 5.2 -0.3 1.4 -0.9 1.1 -3.5 -1.6z"/>
  <path d="M363.5 52.2 c-4.9 -1.7 -5 -1.7 -5.2 -6.2 l-0.2 -4.5 1.3 3.5 c2.2 5.9 9.5 5.5 12.1 -0.8 1.3 -2.9 1.8 -3.4 2.5 -2.2 1.7 2.6 1.1 7.9 -1 10 -2.4 2.4 -3.1 2.4 -9.5 0.2z"/>
  <path d="M210.2 51.8 c-0.9 -0.9 -0.6 -1.8 1.4 -3.9 2.2 -2.3 2.5 -3.3 2 -6.3 -0.6 -2.9 -1.1 -3.6 -3.1 -3.6 -3.6 0 -3.7 -1.3 -0.4 -3.5 2.5 -1.7 2.9 -2.6 2.7 -5.5 -0.2 -2.9 0 -3.5 1.7 -3.5 1.5 0 2.1 0.8 2.3 3.1 0.2 2.2 0.9 3.4 2.3 3.7 2.6 0.7 2.4 2.5 -0.6 3.9 -2 0.9 -2.5 1.9 -2.5 4.6 0 3.5 0 3.5 2 1.7 1.1 -1 2.3 -1.5 2.6 -1.2 1.1 1.1 -2.6 7.5 -5.5 9.6 -3.4 2.5 -3.4 2.4 -4.9 0.9z"/>
  <path d="M184.1 46.3 c-1.7 -2.1 -3.1 -4.1 -3.1 -4.5 0 -1.9 -1.7 -0.5 -2.7 2.2 -0.6 1.7 -2.3 3.4 -3.8 4 -3.4 1.3 -9.5 1.3 -9.5 0 0 -0.5 1 -1 2.3 -1 1.2 0 3.8 -1.4 5.7 -3 l3.5 -3 -3.5 0.6 c-2.7 0.4 -4 0.1 -5.3 -1.3 -1.6 -1.8 -1.5 -1.9 1.7 -2 5.3 -0.1 7.6 -1.9 7.6 -5.6 0 -3.9 2.2 -7.3 3.9 -6.2 0.9 0.5 1.1 1.9 0.6 4.1 l-0.6 3.4 4.2 -0.6 c3.6 -0.6 4.1 -0.5 3.7 1.1 -0.2 1.2 -1.7 2.2 -3.8 2.8 l-3.4 0.9 2.4 1.9 c1.4 1.1 5.1 3.2 8.3 4.6 6.2 2.8 6.9 3.7 3.5 4.7 -5.6 1.5 -8.6 0.7 -11.7 -3.1z"/>
  <path d="M338.6 49.1 c-0.3 -0.4 -0.1 -4.6 0.4 -9.2 0.6 -4.6 1 -8.8 1 -9.2 0 -0.5 0.5 -0.5 1 -0.2 1.2 0.7 4 -1.2 4 -2.7 0 -0.5 -0.9 -0.6 -2 -0.3 -3.3 1 -2.3 -1 1.4 -2.7 3.1 -1.5 3.4 -1.5 5.2 0.2 1.8 1.8 2.2 1.8 8.7 0.2 5.4 -1.3 7 -1.3 8 -0.3 0.9 1 0.7 1.6 -1.3 3.1 -3.2 2.5 -4.4 2.5 -3.7 0 0.6 -2.4 -0.1 -2.5 -5.2 -0.4 -2.2 0.9 -4.3 2.5 -4.6 3.5 -0.9 2.8 -2.5 1.3 -2.5 -2.4 0 -2.9 -0.1 -3 -1.5 -1.1 -0.8 1 -1.5 3.1 -1.5 4.6 0 3.1 -1.7 4.7 -2.6 2.4 -1.4 -3.6 -2.2 -0.1 -1.7 7.4 0.5 6.9 0.4 8 -1 8 -0.9 0 -1.8 -0.4 -2.1 -0.9z"/>
  <path d="M349.5 47 c0.4 -1.4 1.4 -3.2 2.1 -4.1 2.2 -2.5 1.7 -3.1 -1.8 -2.4 -4.8 1 -2.3 -0.9 3.6 -2.9 5.9 -1.9 5.6 -1.9 5.6 -0.3 -0.1 0.6 -2.4 3.7 -5.2 6.7 -3.8 4.1 -4.9 4.8 -4.3 3z"/>
  <path d="M268.7 46.3 c-1 -1 -0.8 -10.1 0.2 -10.7 0.9 -0.6 2.1 4 2.1 8.5 0 2.8 -0.9 3.6 -2.3 2.2z"/>
  <path d="M305.5 35.8 c-1 -2.4 -0.1 -9.1 1.1 -9.5 1.8 -0.6 2.4 7.9 0.8 9.6 -1.1 1.3 -1.4 1.2 -1.9 -0.1z"/>
  <path d="M310.4 32.3 c0.3 -2.1 0.6 -5.1 0.6 -6.7 0 -5.7 2.3 -1 2.4 4.9 0.1 4.7 -0.2 5.5 -1.8 5.5 -1.6 0 -1.8 -0.5 -1.2 -3.7z"/>
  <path d="M352 34.2 c0 -1.3 5 -3.3 6.2 -2.6 0.5 0.3 0.6 1 0.1 1.4 -1.3 1.2 -6.3 2.1 -6.3 1.2z"/>
  <path d="M120.4 28.5 c-2.2 -3.3 -1.5 -4.9 1.4 -3 2.2 1.6 3.1 5.5 1.2 5.5 -0.5 0 -1.7 -1.1 -2.6 -2.5z"/>
  <path d="M240.4 26.9 c-0.9 -1.6 1.8 -3 3.3 -1.7 0.7 0.6 1.3 1.4 1.3 1.9 0 1.3 -3.8 1.1 -4.6 -0.2z"/>
  <path d="M94 24.6 c-0.5 -1.5 -1 -3.5 -1 -4.5 0 -1 -0.7 -3.8 -1.6 -6.3 -1.7 -5 -4.5 -6.8 -13 -8.4 -2.1 -0.3 -4.6 -1.1 -5.4 -1.6 -2.3 -1.5 6.3 0 12.3 2 6 2.1 7 3.6 9.1 13.8 1.5 7.2 1.4 9.5 -0.4 5z"/>
  <path d="M3.5 23 c1.4 -7.3 3.8 -15 4.9 -16 2.1 -1.7 20.8 -5.9 19.1 -4.2 -0.5 0.5 -3.5 1.4 -6.7 2 -3.1 0.6 -7.2 1.8 -9.1 2.6 -3.3 1.3 -3.6 1.9 -5.3 9.3 -1.7 7.8 -4.3 13.2 -2.9 6.3z"/>
  <path d="M271 24 c-2.6 -2 -2.5 -2.1 3.3 -2.5 3.2 -0.2 4.9 2.1 2.6 3.6 -2 1.3 -3.1 1.1 -5.9 -1.1z"/>
  <path d="M354.5 23.1 c-1.9 -0.8 -1.9 -0.8 0.4 -2 2.7 -1.5 5.1 -0.8 5.1 1.4 0 1.6 -2.2 1.9 -5.5 0.6z"/>
 </g>
</svg>