<?xml version="1.0" encoding="UTF-8"?>
<svg xmlns="http://www.w3.org/2000/svg" version="1.1" viewBox="0 0 100 100" stroke="none">
<style type="text/css">
.black {fill:#000000;}
</style>
<path class="black"  d=" M17,17h1v1h-1z M18,17h1v1h-1z M19,17h1v1h-1z M20,17h1v1h-1z M21,17h1v1h-1z M22,17h1v1h-1z M23,17h1v1h-1z M24,17h1v1h-1z M25,17h1v1h-1z M26,17h1v1h-1z M27,17h1v1h-1z M28,17h1v1h-1z M29,17h1v1h-1z M30,17h1v1h-1z M33,17h1v1h-1z M34,17h1v1h-1z M35,17h1v1h-1z M36,17h1v1h-1z M41,17h1v1h-1z M42,17h1v1h-1z M47,17h1v1h-1z M48,17h1v1h-1z M51,17h1v1h-1z M52,17h1v1h-1z M55,17h1v1h-1z M56,17h1v1h-1z M57,17h1v1h-1z M58,17h1v1h-1z M63,17h1v1h-1z M64,17h1v1h-1z M69,17h1v1h-1z M70,17h1v1h-1z M71,17h1v1h-1z M72,17h1v1h-1z M73,17h1v1h-1z M74,17h1v1h-1z M75,17h1v1h-1z M76,17h1v1h-1z M77,17h1v1h-1z M78,17h1v1h-1z M79,17h1v1h-1z M80,17h1v1h-1z M81,17h1v1h-1z M82,17h1v1h-1z M17,18h1v1h-1z M18,18h1v1h-1z M19,18h1v1h-1z M20,18h1v1h-1z M21,18h1v1h-1z M22,18h1v1h-1z M23,18h1v1h-1z M24,18h1v1h-1z M25,18h1v1h-1z M26,18h1v1h-1z M27,18h1v1h-1z M28,18h1v1h-1z M29,18h1v1h-1z M30,18h1v1h-1z M33,18h1v1h-1z M34,18h1v1h-1z M35,18h1v1h-1z M36,18h1v1h-1z M41,18h1v1h-1z M42,18h1v1h-1z M47,18h1v1h-1z M48,18h1v1h-1z M51,18h1v1h-1z M52,18h1v1h-1z M55,18h1v1h-1z M56,18h1v1h-1z M57,18h1v1h-1z M58,18h1v1h-1z M63,18h1v1h-1z M64,18h1v1h-1z M69,18h1v1h-1z M70,18h1v1h-1z M71,18h1v1h-1z M72,18h1v1h-1z M73,18h1v1h-1z M74,18h1v1h-1z M75,18h1v1h-1z M76,18h1v1h-1z M77,18h1v1h-1z M78,18h1v1h-1z M79,18h1v1h-1z M80,18h1v1h-1z M81,18h1v1h-1z M82,18h1v1h-1z M17,19h1v1h-1z M18,19h1v1h-1z M29,19h1v1h-1z M30,19h1v1h-1z M33,19h1v1h-1z M34,19h1v1h-1z M35,19h1v1h-1z M36,19h1v1h-1z M37,19h1v1h-1z M38,19h1v1h-1z M45,19h1v1h-1z M46,19h1v1h-1z M47,19h1v1h-1z M48,19h1v1h-1z M53,19h1v1h-1z M54,19h1v1h-1z M57,19h1v1h-1z M58,19h1v1h-1z M61,19h1v1h-1z M62,19h1v1h-1z M63,19h1v1h-1z M64,19h1v1h-1z M65,19h1v1h-1z M66,19h1v1h-1z M69,19h1v1h-1z M70,19h1v1h-1z M81,19h1v1h-1z M82,19h1v1h-1z M17,20h1v1h-1z M18,20h1v1h-1z M29,20h1v1h-1z M30,20h1v1h-1z M33,20h1v1h-1z M34,20h1v1h-1z M35,20h1v1h-1z M36,20h1v1h-1z M37,20h1v1h-1z M38,20h1v1h-1z M45,20h1v1h-1z M46,20h1v1h-1z M47,20h1v1h-1z M48,20h1v1h-1z M53,20h1v1h-1z M54,20h1v1h-1z M57,20h1v1h-1z M58,20h1v1h-1z M61,20h1v1h-1z M62,20h1v1h-1z M63,20h1v1h-1z M64,20h1v1h-1z M65,20h1v1h-1z M66,20h1v1h-1z M69,20h1v1h-1z M70,20h1v1h-1z M81,20h1v1h-1z M82,20h1v1h-1z M17,21h1v1h-1z M18,21h1v1h-1z M21,21h1v1h-1z M22,21h1v1h-1z M23,21h1v1h-1z M24,21h1v1h-1z M25,21h1v1h-1z M26,21h1v1h-1z M29,21h1v1h-1z M30,21h1v1h-1z M33,21h1v1h-1z M34,21h1v1h-1z M37,21h1v1h-1z M38,21h1v1h-1z M39,21h1v1h-1z M40,21h1v1h-1z M43,21h1v1h-1z M44,21h1v1h-1z M49,21h1v1h-1z M50,21h1v1h-1z M55,21h1v1h-1z M56,21h1v1h-1z M57,21h1v1h-1z M58,21h1v1h-1z M61,21h1v1h-1z M62,21h1v1h-1z M63,21h1v1h-1z M64,21h1v1h-1z M65,21h1v1h-1z M66,21h1v1h-1z M69,21h1v1h-1z M70,21h1v1h-1z M73,21h1v1h-1z M74,21h1v1h-1z M75,21h1v1h-1z M76,21h1v1h-1z M77,21h1v1h-1z M78,21h1v1h-1z M81,21h1v1h-1z M82,21h1v1h-1z M17,22h1v1h-1z M18,22h1v1h-1z M21,22h1v1h-1z M22,22h1v1h-1z M23,22h1v1h-1z M24,22h1v1h-1z M25,22h1v1h-1z M26,22h1v1h-1z M29,22h1v1h-1z M30,22h1v1h-1z M33,22h1v1h-1z M34,22h1v1h-1z M37,22h1v1h-1z M38,22h1v1h-1z M39,22h1v1h-1z M40,22h1v1h-1z M43,22h1v1h-1z M44,22h1v1h-1z M49,22h1v1h-1z M50,22h1v1h-1z M55,22h1v1h-1z M56,22h1v1h-1z M57,22h1v1h-1z M58,22h1v1h-1z M61,22h1v1h-1z M62,22h1v1h-1z M63,22h1v1h-1z M64,22h1v1h-1z M65,22h1v1h-1z M66,22h1v1h-1z M69,22h1v1h-1z M70,22h1v1h-1z M73,22h1v1h-1z M74,22h1v1h-1z M75,22h1v1h-1z M76,22h1v1h-1z M77,22h1v1h-1z M78,22h1v1h-1z M81,22h1v1h-1z M82,22h1v1h-1z M17,23h1v1h-1z M18,23h1v1h-1z M21,23h1v1h-1z M22,23h1v1h-1z M23,23h1v1h-1z M24,23h1v1h-1z M25,23h1v1h-1z M26,23h1v1h-1z M29,23h1v1h-1z M30,23h1v1h-1z M33,23h1v1h-1z M34,23h1v1h-1z M35,23h1v1h-1z M36,23h1v1h-1z M39,23h1v1h-1z M40,23h1v1h-1z M43,23h1v1h-1z M44,23h1v1h-1z M45,23h1v1h-1z M46,23h1v1h-1z M51,23h1v1h-1z M52,23h1v1h-1z M61,23h1v1h-1z M62,23h1v1h-1z M63,23h1v1h-1z M64,23h1v1h-1z M69,23h1v1h-1z M70,23h1v1h-1z M73,23h1v1h-1z M74,23h1v1h-1z M75,23h1v1h-1z M76,23h1v1h-1z M77,23h1v1h-1z M78,23h1v1h-1z M81,23h1v1h-1z M82,23h1v1h-1z M17,24h1v1h-1z M18,24h1v1h-1z M21,24h1v1h-1z M22,24h1v1h-1z M23,24h1v1h-1z M24,24h1v1h-1z M25,24h1v1h-1z M26,24h1v1h-1z M29,24h1v1h-1z M30,24h1v1h-1z M33,24h1v1h-1z M34,24h1v1h-1z M35,24h1v1h-1z M36,24h1v1h-1z M39,24h1v1h-1z M40,24h1v1h-1z M43,24h1v1h-1z M44,24h1v1h-1z M45,24h1v1h-1z M46,24h1v1h-1z M51,24h1v1h-1z M52,24h1v1h-1z M61,24h1v1h-1z M62,24h1v1h-1z M63,24h1v1h-1z M64,24h1v1h-1z M69,24h1v1h-1z M70,24h1v1h-1z M73,24h1v1h-1z M74,24h1v1h-1z M75,24h1v1h-1z M76,24h1v1h-1z M77,24h1v1h-1z M78,24h1v1h-1z M81,24h1v1h-1z M82,24h1v1h-1z M17,25h1v1h-1z M18,25h1v1h-1z M21,25h1v1h-1z M22,25h1v1h-1z M23,25h1v1h-1z M24,25h1v1h-1z M25,25h1v1h-1z M26,25h1v1h-1z M29,25h1v1h-1z M30,25h1v1h-1z M41,25h1v1h-1z M42,25h1v1h-1z M43,25h1v1h-1z M44,25h1v1h-1z M45,25h1v1h-1z M46,25h1v1h-1z M47,25h1v1h-1z M48,25h1v1h-1z M59,25h1v1h-1z M60,25h1v1h-1z M61,25h1v1h-1z M62,25h1v1h-1z M65,25h1v1h-1z M66,25h1v1h-1z M69,25h1v1h-1z M70,25h1v1h-1z M73,25h1v1h-1z M74,25h1v1h-1z M75,25h1v1h-1z M76,25h1v1h-1z M77,25h1v1h-1z M78,25h1v1h-1z M81,25h1v1h-1z M82,25h1v1h-1z M17,26h1v1h-1z M18,26h1v1h-1z M21,26h1v1h-1z M22,26h1v1h-1z M23,26h1v1h-1z M24,26h1v1h-1z M25,26h1v1h-1z M26,26h1v1h-1z M29,26h1v1h-1z M30,26h1v1h-1z M41,26h1v1h-1z M42,26h1v1h-1z M43,26h1v1h-1z M44,26h1v1h-1z M45,26h1v1h-1z M46,26h1v1h-1z M47,26h1v1h-1z M48,26h1v1h-1z M59,26h1v1h-1z M60,26h1v1h-1z M61,26h1v1h-1z M62,26h1v1h-1z M65,26h1v1h-1z M66,26h1v1h-1z M69,26h1v1h-1z M70,26h1v1h-1z M73,26h1v1h-1z M74,26h1v1h-1z M75,26h1v1h-1z M76,26h1v1h-1z M77,26h1v1h-1z M78,26h1v1h-1z M81,26h1v1h-1z M82,26h1v1h-1z M17,27h1v1h-1z M18,27h1v1h-1z M29,27h1v1h-1z M30,27h1v1h-1z M33,27h1v1h-1z M34,27h1v1h-1z M39,27h1v1h-1z M40,27h1v1h-1z M41,27h1v1h-1z M42,27h1v1h-1z M43,27h1v1h-1z M44,27h1v1h-1z M47,27h1v1h-1z M48,27h1v1h-1z M51,27h1v1h-1z M52,27h1v1h-1z M53,27h1v1h-1z M54,27h1v1h-1z M59,27h1v1h-1z M60,27h1v1h-1z M63,27h1v1h-1z M64,27h1v1h-1z M65,27h1v1h-1z M66,27h1v1h-1z M69,27h1v1h-1z M70,27h1v1h-1z M81,27h1v1h-1z M82,27h1v1h-1z M17,28h1v1h-1z M18,28h1v1h-1z M29,28h1v1h-1z M30,28h1v1h-1z M33,28h1v1h-1z M34,28h1v1h-1z M39,28h1v1h-1z M40,28h1v1h-1z M41,28h1v1h-1z M42,28h1v1h-1z M43,28h1v1h-1z M44,28h1v1h-1z M47,28h1v1h-1z M48,28h1v1h-1z M51,28h1v1h-1z M52,28h1v1h-1z M53,28h1v1h-1z M54,28h1v1h-1z M59,28h1v1h-1z M60,28h1v1h-1z M63,28h1v1h-1z M64,28h1v1h-1z M65,28h1v1h-1z M66,28h1v1h-1z M69,28h1v1h-1z M70,28h1v1h-1z M81,28h1v1h-1z M82,28h1v1h-1z M17,29h1v1h-1z M18,29h1v1h-1z M19,29h1v1h-1z M20,29h1v1h-1z M21,29h1v1h-1z M22,29h1v1h-1z M23,29h1v1h-1z M24,29h1v1h-1z M25,29h1v1h-1z M26,29h1v1h-1z M27,29h1v1h-1z M28,29h1v1h-1z M29,29h1v1h-1z M30,29h1v1h-1z M33,29h1v1h-1z M34,29h1v1h-1z M37,29h1v1h-1z M38,29h1v1h-1z M41,29h1v1h-1z M42,29h1v1h-1z M45,29h1v1h-1z M46,29h1v1h-1z M49,29h1v1h-1z M50,29h1v1h-1z M53,29h1v1h-1z M54,29h1v1h-1z M57,29h1v1h-1z M58,29h1v1h-1z M61,29h1v1h-1z M62,29h1v1h-1z M65,29h1v1h-1z M66,29h1v1h-1z M69,29h1v1h-1z M70,29h1v1h-1z M71,29h1v1h-1z M72,29h1v1h-1z M73,29h1v1h-1z M74,29h1v1h-1z M75,29h1v1h-1z M76,29h1v1h-1z M77,29h1v1h-1z M78,29h1v1h-1z M79,29h1v1h-1z M80,29h1v1h-1z M81,29h1v1h-1z M82,29h1v1h-1z M17,30h1v1h-1z M18,30h1v1h-1z M19,30h1v1h-1z M20,30h1v1h-1z M21,30h1v1h-1z M22,30h1v1h-1z M23,30h1v1h-1z M24,30h1v1h-1z M25,30h1v1h-1z M26,30h1v1h-1z M27,30h1v1h-1z M28,30h1v1h-1z M29,30h1v1h-1z M30,30h1v1h-1z M33,30h1v1h-1z M34,30h1v1h-1z M37,30h1v1h-1z M38,30h1v1h-1z M41,30h1v1h-1z M42,30h1v1h-1z M45,30h1v1h-1z M46,30h1v1h-1z M49,30h1v1h-1z M50,30h1v1h-1z M53,30h1v1h-1z M54,30h1v1h-1z M57,30h1v1h-1z M58,30h1v1h-1z M61,30h1v1h-1z M62,30h1v1h-1z M65,30h1v1h-1z M66,30h1v1h-1z M69,30h1v1h-1z M70,30h1v1h-1z M71,30h1v1h-1z M72,30h1v1h-1z M73,30h1v1h-1z M74,30h1v1h-1z M75,30h1v1h-1z M76,30h1v1h-1z M77,30h1v1h-1z M78,30h1v1h-1z M79,30h1v1h-1z M80,30h1v1h-1z M81,30h1v1h-1z M82,30h1v1h-1z M35,31h1v1h-1z M36,31h1v1h-1z M39,31h1v1h-1z M40,31h1v1h-1z M41,31h1v1h-1z M42,31h1v1h-1z M43,31h1v1h-1z M44,31h1v1h-1z M47,31h1v1h-1z M48,31h1v1h-1z M53,31h1v1h-1z M54,31h1v1h-1z M61,31h1v1h-1z M62,31h1v1h-1z M35,32h1v1h-1z M36,32h1v1h-1z M39,32h1v1h-1z M40,32h1v1h-1z M41,32h1v1h-1z M42,32h1v1h-1z M43,32h1v1h-1z M44,32h1v1h-1z M47,32h1v1h-1z M48,32h1v1h-1z M53,32h1v1h-1z M54,32h1v1h-1z M61,32h1v1h-1z M62,32h1v1h-1z M17,33h1v1h-1z M18,33h1v1h-1z M19,33h1v1h-1z M20,33h1v1h-1z M25,33h1v1h-1z M26,33h1v1h-1z M27,33h1v1h-1z M28,33h1v1h-1z M29,33h1v1h-1z M30,33h1v1h-1z M39,33h1v1h-1z M40,33h1v1h-1z M45,33h1v1h-1z M46,33h1v1h-1z M51,33h1v1h-1z M52,33h1v1h-1z M63,33h1v1h-1z M64,33h1v1h-1z M71,33h1v1h-1z M72,33h1v1h-1z M75,33h1v1h-1z M76,33h1v1h-1z M77,33h1v1h-1z M78,33h1v1h-1z M79,33h1v1h-1z M80,33h1v1h-1z M81,33h1v1h-1z M82,33h1v1h-1z M17,34h1v1h-1z M18,34h1v1h-1z M19,34h1v1h-1z M20,34h1v1h-1z M25,34h1v1h-1z M26,34h1v1h-1z M27,34h1v1h-1z M28,34h1v1h-1z M29,34h1v1h-1z M30,34h1v1h-1z M39,34h1v1h-1z M40,34h1v1h-1z M45,34h1v1h-1z M46,34h1v1h-1z M51,34h1v1h-1z M52,34h1v1h-1z M63,34h1v1h-1z M64,34h1v1h-1z M71,34h1v1h-1z M72,34h1v1h-1z M75,34h1v1h-1z M76,34h1v1h-1z M77,34h1v1h-1z M78,34h1v1h-1z M79,34h1v1h-1z M80,34h1v1h-1z M81,34h1v1h-1z M82,34h1v1h-1z M21,35h1v1h-1z M22,35h1v1h-1z M23,35h1v1h-1z M24,35h1v1h-1z M25,35h1v1h-1z M26,35h1v1h-1z M31,35h1v1h-1z M32,35h1v1h-1z M33,35h1v1h-1z M34,35h1v1h-1z M35,35h1v1h-1z M36,35h1v1h-1z M37,35h1v1h-1z M38,35h1v1h-1z M39,35h1v1h-1z M40,35h1v1h-1z M41,35h1v1h-1z M42,35h1v1h-1z M47,35h1v1h-1z M48,35h1v1h-1z M49,35h1v1h-1z M50,35h1v1h-1z M51,35h1v1h-1z M52,35h1v1h-1z M53,35h1v1h-1z M54,35h1v1h-1z M57,35h1v1h-1z M58,35h1v1h-1z M59,35h1v1h-1z M60,35h1v1h-1z M65,35h1v1h-1z M66,35h1v1h-1z M67,35h1v1h-1z M68,35h1v1h-1z M71,35h1v1h-1z M72,35h1v1h-1z M73,35h1v1h-1z M74,35h1v1h-1z M75,35h1v1h-1z M76,35h1v1h-1z M77,35h1v1h-1z M78,35h1v1h-1z M79,35h1v1h-1z M80,35h1v1h-1z M21,36h1v1h-1z M22,36h1v1h-1z M23,36h1v1h-1z M24,36h1v1h-1z M25,36h1v1h-1z M26,36h1v1h-1z M31,36h1v1h-1z M32,36h1v1h-1z M33,36h1v1h-1z M34,36h1v1h-1z M35,36h1v1h-1z M36,36h1v1h-1z M37,36h1v1h-1z M38,36h1v1h-1z M39,36h1v1h-1z M40,36h1v1h-1z M41,36h1v1h-1z M42,36h1v1h-1z M47,36h1v1h-1z M48,36h1v1h-1z M49,36h1v1h-1z M50,36h1v1h-1z M51,36h1v1h-1z M52,36h1v1h-1z M53,36h1v1h-1z M54,36h1v1h-1z M57,36h1v1h-1z M58,36h1v1h-1z M59,36h1v1h-1z M60,36h1v1h-1z M65,36h1v1h-1z M66,36h1v1h-1z M67,36h1v1h-1z M68,36h1v1h-1z M71,36h1v1h-1z M72,36h1v1h-1z M73,36h1v1h-1z M74,36h1v1h-1z M75,36h1v1h-1z M76,36h1v1h-1z M77,36h1v1h-1z M78,36h1v1h-1z M79,36h1v1h-1z M80,36h1v1h-1z M17,37h1v1h-1z M18,37h1v1h-1z M23,37h1v1h-1z M24,37h1v1h-1z M25,37h1v1h-1z M26,37h1v1h-1z M27,37h1v1h-1z M28,37h1v1h-1z M29,37h1v1h-1z M30,37h1v1h-1z M33,37h1v1h-1z M34,37h1v1h-1z M41,37h1v1h-1z M42,37h1v1h-1z M43,37h1v1h-1z M44,37h1v1h-1z M45,37h1v1h-1z M46,37h1v1h-1z M49,37h1v1h-1z M50,37h1v1h-1z M51,37h1v1h-1z M52,37h1v1h-1z M55,37h1v1h-1z M56,37h1v1h-1z M59,37h1v1h-1z M60,37h1v1h-1z M65,37h1v1h-1z M66,37h1v1h-1z M67,37h1v1h-1z M68,37h1v1h-1z M73,37h1v1h-1z M74,37h1v1h-1z M75,37h1v1h-1z M76,37h1v1h-1z M77,37h1v1h-1z M78,37h1v1h-1z M81,37h1v1h-1z M82,37h1v1h-1z M17,38h1v1h-1z M18,38h1v1h-1z M23,38h1v1h-1z M24,38h1v1h-1z M25,38h1v1h-1z M26,38h1v1h-1z M27,38h1v1h-1z M28,38h1v1h-1z M29,38h1v1h-1z M30,38h1v1h-1z M33,38h1v1h-1z M34,38h1v1h-1z M41,38h1v1h-1z M42,38h1v1h-1z M43,38h1v1h-1z M44,38h1v1h-1z M45,38h1v1h-1z M46,38h1v1h-1z M49,38h1v1h-1z M50,38h1v1h-1z M51,38h1v1h-1z M52,38h1v1h-1z M55,38h1v1h-1z M56,38h1v1h-1z M59,38h1v1h-1z M60,38h1v1h-1z M65,38h1v1h-1z M66,38h1v1h-1z M67,38h1v1h-1z M68,38h1v1h-1z M73,38h1v1h-1z M74,38h1v1h-1z M75,38h1v1h-1z M76,38h1v1h-1z M77,38h1v1h-1z M78,38h1v1h-1z M81,38h1v1h-1z M82,38h1v1h-1z M17,39h1v1h-1z M18,39h1v1h-1z M21,39h1v1h-1z M22,39h1v1h-1z M25,39h1v1h-1z M26,39h1v1h-1z M27,39h1v1h-1z M28,39h1v1h-1z M31,39h1v1h-1z M32,39h1v1h-1z M33,39h1v1h-1z M34,39h1v1h-1z M37,39h1v1h-1z M38,39h1v1h-1z M41,39h1v1h-1z M42,39h1v1h-1z M43,39h1v1h-1z M44,39h1v1h-1z M45,39h1v1h-1z M46,39h1v1h-1z M49,39h1v1h-1z M50,39h1v1h-1z M55,39h1v1h-1z M56,39h1v1h-1z M57,39h1v1h-1z M58,39h1v1h-1z M61,39h1v1h-1z M62,39h1v1h-1z M65,39h1v1h-1z M66,39h1v1h-1z M67,39h1v1h-1z M68,39h1v1h-1z M73,39h1v1h-1z M74,39h1v1h-1z M75,39h1v1h-1z M76,39h1v1h-1z M77,39h1v1h-1z M78,39h1v1h-1z M17,40h1v1h-1z M18,40h1v1h-1z M21,40h1v1h-1z M22,40h1v1h-1z M25,40h1v1h-1z M26,40h1v1h-1z M27,40h1v1h-1z M28,40h1v1h-1z M31,40h1v1h-1z M32,40h1v1h-1z M33,40h1v1h-1z M34,40h1v1h-1z M37,40h1v1h-1z M38,40h1v1h-1z M41,40h1v1h-1z M42,40h1v1h-1z M43,40h1v1h-1z M44,40h1v1h-1z M45,40h1v1h-1z M46,40h1v1h-1z M49,40h1v1h-1z M50,40h1v1h-1z M55,40h1v1h-1z M56,40h1v1h-1z M57,40h1v1h-1z M58,40h1v1h-1z M61,40h1v1h-1z M62,40h1v1h-1z M65,40h1v1h-1z M66,40h1v1h-1z M67,40h1v1h-1z M68,40h1v1h-1z M73,40h1v1h-1z M74,40h1v1h-1z M75,40h1v1h-1z M76,40h1v1h-1z M77,40h1v1h-1z M78,40h1v1h-1z M17,41h1v1h-1z M18,41h1v1h-1z M21,41h1v1h-1z M22,41h1v1h-1z M25,41h1v1h-1z M26,41h1v1h-1z M27,41h1v1h-1z M28,41h1v1h-1z M29,41h1v1h-1z M30,41h1v1h-1z M31,41h1v1h-1z M32,41h1v1h-1z M37,41h1v1h-1z M38,41h1v1h-1z M39,41h1v1h-1z M40,41h1v1h-1z M41,41h1v1h-1z M42,41h1v1h-1z M45,41h1v1h-1z M46,41h1v1h-1z M47,41h1v1h-1z M48,41h1v1h-1z M51,41h1v1h-1z M52,41h1v1h-1z M53,41h1v1h-1z M54,41h1v1h-1z M57,41h1v1h-1z M58,41h1v1h-1z M59,41h1v1h-1z M60,41h1v1h-1z M61,41h1v1h-1z M62,41h1v1h-1z M65,41h1v1h-1z M66,41h1v1h-1z M67,41h1v1h-1z M68,41h1v1h-1z M73,41h1v1h-1z M74,41h1v1h-1z M77,41h1v1h-1z M78,41h1v1h-1z M79,41h1v1h-1z M80,41h1v1h-1z M17,42h1v1h-1z M18,42h1v1h-1z M21,42h1v1h-1z M22,42h1v1h-1z M25,42h1v1h-1z M26,42h1v1h-1z M27,42h1v1h-1z M28,42h1v1h-1z M29,42h1v1h-1z M30,42h1v1h-1z M31,42h1v1h-1z M32,42h1v1h-1z M37,42h1v1h-1z M38,42h1v1h-1z M39,42h1v1h-1z M40,42h1v1h-1z M41,42h1v1h-1z M42,42h1v1h-1z M45,42h1v1h-1z M46,42h1v1h-1z M47,42h1v1h-1z M48,42h1v1h-1z M51,42h1v1h-1z M52,42h1v1h-1z M53,42h1v1h-1z M54,42h1v1h-1z M57,42h1v1h-1z M58,42h1v1h-1z M59,42h1v1h-1z M60,42h1v1h-1z M61,42h1v1h-1z M62,42h1v1h-1z M65,42h1v1h-1z M66,42h1v1h-1z M67,42h1v1h-1z M68,42h1v1h-1z M73,42h1v1h-1z M74,42h1v1h-1z M77,42h1v1h-1z M78,42h1v1h-1z M79,42h1v1h-1z M80,42h1v1h-1z M21,43h1v1h-1z M22,43h1v1h-1z M23,43h1v1h-1z M24,43h1v1h-1z M27,43h1v1h-1z M28,43h1v1h-1z M31,43h1v1h-1z M32,43h1v1h-1z M39,43h1v1h-1z M40,43h1v1h-1z M43,43h1v1h-1z M44,43h1v1h-1z M45,43h1v1h-1z M46,43h1v1h-1z M47,43h1v1h-1z M48,43h1v1h-1z M53,43h1v1h-1z M54,43h1v1h-1z M57,43h1v1h-1z M58,43h1v1h-1z M63,43h1v1h-1z M64,43h1v1h-1z M67,43h1v1h-1z M68,43h1v1h-1z M69,43h1v1h-1z M70,43h1v1h-1z M73,43h1v1h-1z M74,43h1v1h-1z M77,43h1v1h-1z M78,43h1v1h-1z M79,43h1v1h-1z M80,43h1v1h-1z M21,44h1v1h-1z M22,44h1v1h-1z M23,44h1v1h-1z M24,44h1v1h-1z M27,44h1v1h-1z M28,44h1v1h-1z M31,44h1v1h-1z M32,44h1v1h-1z M39,44h1v1h-1z M40,44h1v1h-1z M43,44h1v1h-1z M44,44h1v1h-1z M45,44h1v1h-1z M46,44h1v1h-1z M47,44h1v1h-1z M48,44h1v1h-1z M53,44h1v1h-1z M54,44h1v1h-1z M57,44h1v1h-1z M58,44h1v1h-1z M63,44h1v1h-1z M64,44h1v1h-1z M67,44h1v1h-1z M68,44h1v1h-1z M69,44h1v1h-1z M70,44h1v1h-1z M73,44h1v1h-1z M74,44h1v1h-1z M77,44h1v1h-1z M78,44h1v1h-1z M79,44h1v1h-1z M80,44h1v1h-1z M25,45h1v1h-1z M26,45h1v1h-1z M29,45h1v1h-1z M30,45h1v1h-1z M31,45h1v1h-1z M32,45h1v1h-1z M33,45h1v1h-1z M34,45h1v1h-1z M35,45h1v1h-1z M36,45h1v1h-1z M37,45h1v1h-1z M38,45h1v1h-1z M41,45h1v1h-1z M42,45h1v1h-1z M49,45h1v1h-1z M50,45h1v1h-1z M55,45h1v1h-1z M56,45h1v1h-1z M57,45h1v1h-1z M58,45h1v1h-1z M67,45h1v1h-1z M68,45h1v1h-1z M69,45h1v1h-1z M70,45h1v1h-1z M73,45h1v1h-1z M74,45h1v1h-1z M79,45h1v1h-1z M80,45h1v1h-1z M81,45h1v1h-1z M82,45h1v1h-1z M25,46h1v1h-1z M26,46h1v1h-1z M29,46h1v1h-1z M30,46h1v1h-1z M31,46h1v1h-1z M32,46h1v1h-1z M33,46h1v1h-1z M34,46h1v1h-1z M35,46h1v1h-1z M36,46h1v1h-1z M37,46h1v1h-1z M38,46h1v1h-1z M41,46h1v1h-1z M42,46h1v1h-1z M49,46h1v1h-1z M50,46h1v1h-1z M55,46h1v1h-1z M56,46h1v1h-1z M57,46h1v1h-1z M58,46h1v1h-1z M67,46h1v1h-1z M68,46h1v1h-1z M69,46h1v1h-1z M70,46h1v1h-1z M73,46h1v1h-1z M74,46h1v1h-1z M79,46h1v1h-1z M80,46h1v1h-1z M81,46h1v1h-1z M82,46h1v1h-1z M17,47h1v1h-1z M18,47h1v1h-1z M19,47h1v1h-1z M20,47h1v1h-1z M31,47h1v1h-1z M32,47h1v1h-1z M33,47h1v1h-1z M34,47h1v1h-1z M39,47h1v1h-1z M40,47h1v1h-1z M43,47h1v1h-1z M44,47h1v1h-1z M45,47h1v1h-1z M46,47h1v1h-1z M47,47h1v1h-1z M48,47h1v1h-1z M49,47h1v1h-1z M50,47h1v1h-1z M57,47h1v1h-1z M58,47h1v1h-1z M65,47h1v1h-1z M66,47h1v1h-1z M69,47h1v1h-1z M70,47h1v1h-1z M77,47h1v1h-1z M78,47h1v1h-1z M79,47h1v1h-1z M80,47h1v1h-1z M17,48h1v1h-1z M18,48h1v1h-1z M19,48h1v1h-1z M20,48h1v1h-1z M31,48h1v1h-1z M32,48h1v1h-1z M33,48h1v1h-1z M34,48h1v1h-1z M39,48h1v1h-1z M40,48h1v1h-1z M43,48h1v1h-1z M44,48h1v1h-1z M45,48h1v1h-1z M46,48h1v1h-1z M47,48h1v1h-1z M48,48h1v1h-1z M49,48h1v1h-1z M50,48h1v1h-1z M57,48h1v1h-1z M58,48h1v1h-1z M65,48h1v1h-1z M66,48h1v1h-1z M69,48h1v1h-1z M70,48h1v1h-1z M77,48h1v1h-1z M78,48h1v1h-1z M79,48h1v1h-1z M80,48h1v1h-1z M21,49h1v1h-1z M22,49h1v1h-1z M27,49h1v1h-1z M28,49h1v1h-1z M29,49h1v1h-1z M30,49h1v1h-1z M33,49h1v1h-1z M34,49h1v1h-1z M35,49h1v1h-1z M36,49h1v1h-1z M41,49h1v1h-1z M42,49h1v1h-1z M47,49h1v1h-1z M48,49h1v1h-1z M49,49h1v1h-1z M50,49h1v1h-1z M51,49h1v1h-1z M52,49h1v1h-1z M53,49h1v1h-1z M54,49h1v1h-1z M55,49h1v1h-1z M56,49h1v1h-1z M57,49h1v1h-1z M58,49h1v1h-1z M59,49h1v1h-1z M60,49h1v1h-1z M63,49h1v1h-1z M64,49h1v1h-1z M65,49h1v1h-1z M66,49h1v1h-1z M67,49h1v1h-1z M68,49h1v1h-1z M71,49h1v1h-1z M72,49h1v1h-1z M21,50h1v1h-1z M22,50h1v1h-1z M27,50h1v1h-1z M28,50h1v1h-1z M29,50h1v1h-1z M30,50h1v1h-1z M33,50h1v1h-1z M34,50h1v1h-1z M35,50h1v1h-1z M36,50h1v1h-1z M41,50h1v1h-1z M42,50h1v1h-1z M47,50h1v1h-1z M48,50h1v1h-1z M49,50h1v1h-1z M50,50h1v1h-1z M51,50h1v1h-1z M52,50h1v1h-1z M53,50h1v1h-1z M54,50h1v1h-1z M55,50h1v1h-1z M56,50h1v1h-1z M57,50h1v1h-1z M58,50h1v1h-1z M59,50h1v1h-1z M60,50h1v1h-1z M63,50h1v1h-1z M64,50h1v1h-1z M65,50h1v1h-1z M66,50h1v1h-1z M67,50h1v1h-1z M68,50h1v1h-1z M71,50h1v1h-1z M72,50h1v1h-1z M27,51h1v1h-1z M28,51h1v1h-1z M33,51h1v1h-1z M34,51h1v1h-1z M37,51h1v1h-1z M38,51h1v1h-1z M41,51h1v1h-1z M42,51h1v1h-1z M43,51h1v1h-1z M44,51h1v1h-1z M45,51h1v1h-1z M46,51h1v1h-1z M47,51h1v1h-1z M48,51h1v1h-1z M51,51h1v1h-1z M52,51h1v1h-1z M53,51h1v1h-1z M54,51h1v1h-1z M59,51h1v1h-1z M60,51h1v1h-1z M61,51h1v1h-1z M62,51h1v1h-1z M65,51h1v1h-1z M66,51h1v1h-1z M67,51h1v1h-1z M68,51h1v1h-1z M69,51h1v1h-1z M70,51h1v1h-1z M73,51h1v1h-1z M74,51h1v1h-1z M75,51h1v1h-1z M76,51h1v1h-1z M77,51h1v1h-1z M78,51h1v1h-1z M79,51h1v1h-1z M80,51h1v1h-1z M81,51h1v1h-1z M82,51h1v1h-1z M27,52h1v1h-1z M28,52h1v1h-1z M33,52h1v1h-1z M34,52h1v1h-1z M37,52h1v1h-1z M38,52h1v1h-1z M41,52h1v1h-1z M42,52h1v1h-1z M43,52h1v1h-1z M44,52h1v1h-1z M45,52h1v1h-1z M46,52h1v1h-1z M47,52h1v1h-1z M48,52h1v1h-1z M51,52h1v1h-1z M52,52h1v1h-1z M53,52h1v1h-1z M54,52h1v1h-1z M59,52h1v1h-1z M60,52h1v1h-1z M61,52h1v1h-1z M62,52h1v1h-1z M65,52h1v1h-1z M66,52h1v1h-1z M67,52h1v1h-1z M68,52h1v1h-1z M69,52h1v1h-1z M70,52h1v1h-1z M73,52h1v1h-1z M74,52h1v1h-1z M75,52h1v1h-1z M76,52h1v1h-1z M77,52h1v1h-1z M78,52h1v1h-1z M79,52h1v1h-1z M80,52h1v1h-1z M81,52h1v1h-1z M82,52h1v1h-1z M17,53h1v1h-1z M18,53h1v1h-1z M19,53h1v1h-1z M20,53h1v1h-1z M21,53h1v1h-1z M22,53h1v1h-1z M23,53h1v1h-1z M24,53h1v1h-1z M25,53h1v1h-1z M26,53h1v1h-1z M27,53h1v1h-1z M28,53h1v1h-1z M29,53h1v1h-1z M30,53h1v1h-1z M31,53h1v1h-1z M32,53h1v1h-1z M33,53h1v1h-1z M34,53h1v1h-1z M35,53h1v1h-1z M36,53h1v1h-1z M43,53h1v1h-1z M44,53h1v1h-1z M45,53h1v1h-1z M46,53h1v1h-1z M49,53h1v1h-1z M50,53h1v1h-1z M55,53h1v1h-1z M56,53h1v1h-1z M61,53h1v1h-1z M62,53h1v1h-1z M67,53h1v1h-1z M68,53h1v1h-1z M71,53h1v1h-1z M72,53h1v1h-1z M75,53h1v1h-1z M76,53h1v1h-1z M77,53h1v1h-1z M78,53h1v1h-1z M81,53h1v1h-1z M82,53h1v1h-1z M17,54h1v1h-1z M18,54h1v1h-1z M19,54h1v1h-1z M20,54h1v1h-1z M21,54h1v1h-1z M22,54h1v1h-1z M23,54h1v1h-1z M24,54h1v1h-1z M25,54h1v1h-1z M26,54h1v1h-1z M27,54h1v1h-1z M28,54h1v1h-1z M29,54h1v1h-1z M30,54h1v1h-1z M31,54h1v1h-1z M32,54h1v1h-1z M33,54h1v1h-1z M34,54h1v1h-1z M35,54h1v1h-1z M36,54h1v1h-1z M43,54h1v1h-1z M44,54h1v1h-1z M45,54h1v1h-1z M46,54h1v1h-1z M49,54h1v1h-1z M50,54h1v1h-1z M55,54h1v1h-1z M56,54h1v1h-1z M61,54h1v1h-1z M62,54h1v1h-1z M67,54h1v1h-1z M68,54h1v1h-1z M71,54h1v1h-1z M72,54h1v1h-1z M75,54h1v1h-1z M76,54h1v1h-1z M77,54h1v1h-1z M78,54h1v1h-1z M81,54h1v1h-1z M82,54h1v1h-1z M17,55h1v1h-1z M18,55h1v1h-1z M27,55h1v1h-1z M28,55h1v1h-1z M35,55h1v1h-1z M36,55h1v1h-1z M39,55h1v1h-1z M40,55h1v1h-1z M41,55h1v1h-1z M42,55h1v1h-1z M43,55h1v1h-1z M44,55h1v1h-1z M47,55h1v1h-1z M48,55h1v1h-1z M53,55h1v1h-1z M54,55h1v1h-1z M57,55h1v1h-1z M58,55h1v1h-1z M63,55h1v1h-1z M64,55h1v1h-1z M69,55h1v1h-1z M70,55h1v1h-1z M73,55h1v1h-1z M74,55h1v1h-1z M75,55h1v1h-1z M76,55h1v1h-1z M77,55h1v1h-1z M78,55h1v1h-1z M17,56h1v1h-1z M18,56h1v1h-1z M27,56h1v1h-1z M28,56h1v1h-1z M35,56h1v1h-1z M36,56h1v1h-1z M39,56h1v1h-1z M40,56h1v1h-1z M41,56h1v1h-1z M42,56h1v1h-1z M43,56h1v1h-1z M44,56h1v1h-1z M47,56h1v1h-1z M48,56h1v1h-1z M53,56h1v1h-1z M54,56h1v1h-1z M57,56h1v1h-1z M58,56h1v1h-1z M63,56h1v1h-1z M64,56h1v1h-1z M69,56h1v1h-1z M70,56h1v1h-1z M73,56h1v1h-1z M74,56h1v1h-1z M75,56h1v1h-1z M76,56h1v1h-1z M77,56h1v1h-1z M78,56h1v1h-1z M21,57h1v1h-1z M22,57h1v1h-1z M25,57h1v1h-1z M26,57h1v1h-1z M29,57h1v1h-1z M30,57h1v1h-1z M31,57h1v1h-1z M32,57h1v1h-1z M33,57h1v1h-1z M34,57h1v1h-1z M37,57h1v1h-1z M38,57h1v1h-1z M39,57h1v1h-1z M40,57h1v1h-1z M43,57h1v1h-1z M44,57h1v1h-1z M45,57h1v1h-1z M46,57h1v1h-1z M51,57h1v1h-1z M52,57h1v1h-1z M57,57h1v1h-1z M58,57h1v1h-1z M59,57h1v1h-1z M60,57h1v1h-1z M63,57h1v1h-1z M64,57h1v1h-1z M73,57h1v1h-1z M74,57h1v1h-1z M77,57h1v1h-1z M78,57h1v1h-1z M79,57h1v1h-1z M80,57h1v1h-1z M21,58h1v1h-1z M22,58h1v1h-1z M25,58h1v1h-1z M26,58h1v1h-1z M29,58h1v1h-1z M30,58h1v1h-1z M31,58h1v1h-1z M32,58h1v1h-1z M33,58h1v1h-1z M34,58h1v1h-1z M37,58h1v1h-1z M38,58h1v1h-1z M39,58h1v1h-1z M40,58h1v1h-1z M43,58h1v1h-1z M44,58h1v1h-1z M45,58h1v1h-1z M46,58h1v1h-1z M51,58h1v1h-1z M52,58h1v1h-1z M57,58h1v1h-1z M58,58h1v1h-1z M59,58h1v1h-1z M60,58h1v1h-1z M63,58h1v1h-1z M64,58h1v1h-1z M73,58h1v1h-1z M74,58h1v1h-1z M77,58h1v1h-1z M78,58h1v1h-1z M79,58h1v1h-1z M80,58h1v1h-1z M17,59h1v1h-1z M18,59h1v1h-1z M21,59h1v1h-1z M22,59h1v1h-1z M23,59h1v1h-1z M24,59h1v1h-1z M31,59h1v1h-1z M32,59h1v1h-1z M33,59h1v1h-1z M34,59h1v1h-1z M35,59h1v1h-1z M36,59h1v1h-1z M39,59h1v1h-1z M40,59h1v1h-1z M41,59h1v1h-1z M42,59h1v1h-1z M43,59h1v1h-1z M44,59h1v1h-1z M45,59h1v1h-1z M46,59h1v1h-1z M47,59h1v1h-1z M48,59h1v1h-1z M49,59h1v1h-1z M50,59h1v1h-1z M53,59h1v1h-1z M54,59h1v1h-1z M55,59h1v1h-1z M56,59h1v1h-1z M57,59h1v1h-1z M58,59h1v1h-1z M61,59h1v1h-1z M62,59h1v1h-1z M65,59h1v1h-1z M66,59h1v1h-1z M67,59h1v1h-1z M68,59h1v1h-1z M71,59h1v1h-1z M72,59h1v1h-1z M73,59h1v1h-1z M74,59h1v1h-1z M17,60h1v1h-1z M18,60h1v1h-1z M21,60h1v1h-1z M22,60h1v1h-1z M23,60h1v1h-1z M24,60h1v1h-1z M31,60h1v1h-1z M32,60h1v1h-1z M33,60h1v1h-1z M34,60h1v1h-1z M35,60h1v1h-1z M36,60h1v1h-1z M39,60h1v1h-1z M40,60h1v1h-1z M41,60h1v1h-1z M42,60h1v1h-1z M43,60h1v1h-1z M44,60h1v1h-1z M45,60h1v1h-1z M46,60h1v1h-1z M47,60h1v1h-1z M48,60h1v1h-1z M49,60h1v1h-1z M50,60h1v1h-1z M53,60h1v1h-1z M54,60h1v1h-1z M55,60h1v1h-1z M56,60h1v1h-1z M57,60h1v1h-1z M58,60h1v1h-1z M61,60h1v1h-1z M62,60h1v1h-1z M65,60h1v1h-1z M66,60h1v1h-1z M67,60h1v1h-1z M68,60h1v1h-1z M71,60h1v1h-1z M72,60h1v1h-1z M73,60h1v1h-1z M74,60h1v1h-1z M27,61h1v1h-1z M28,61h1v1h-1z M29,61h1v1h-1z M30,61h1v1h-1z M31,61h1v1h-1z M32,61h1v1h-1z M35,61h1v1h-1z M36,61h1v1h-1z M37,61h1v1h-1z M38,61h1v1h-1z M41,61h1v1h-1z M42,61h1v1h-1z M49,61h1v1h-1z M50,61h1v1h-1z M53,61h1v1h-1z M54,61h1v1h-1z M55,61h1v1h-1z M56,61h1v1h-1z M59,61h1v1h-1z M60,61h1v1h-1z M67,61h1v1h-1z M68,61h1v1h-1z M81,61h1v1h-1z M82,61h1v1h-1z M27,62h1v1h-1z M28,62h1v1h-1z M29,62h1v1h-1z M30,62h1v1h-1z M31,62h1v1h-1z M32,62h1v1h-1z M35,62h1v1h-1z M36,62h1v1h-1z M37,62h1v1h-1z M38,62h1v1h-1z M41,62h1v1h-1z M42,62h1v1h-1z M49,62h1v1h-1z M50,62h1v1h-1z M53,62h1v1h-1z M54,62h1v1h-1z M55,62h1v1h-1z M56,62h1v1h-1z M59,62h1v1h-1z M60,62h1v1h-1z M67,62h1v1h-1z M68,62h1v1h-1z M81,62h1v1h-1z M82,62h1v1h-1z M21,63h1v1h-1z M22,63h1v1h-1z M23,63h1v1h-1z M24,63h1v1h-1z M25,63h1v1h-1z M26,63h1v1h-1z M31,63h1v1h-1z M32,63h1v1h-1z M33,63h1v1h-1z M34,63h1v1h-1z M35,63h1v1h-1z M36,63h1v1h-1z M41,63h1v1h-1z M42,63h1v1h-1z M43,63h1v1h-1z M44,63h1v1h-1z M45,63h1v1h-1z M46,63h1v1h-1z M53,63h1v1h-1z M54,63h1v1h-1z M57,63h1v1h-1z M58,63h1v1h-1z M61,63h1v1h-1z M62,63h1v1h-1z M65,63h1v1h-1z M66,63h1v1h-1z M75,63h1v1h-1z M76,63h1v1h-1z M77,63h1v1h-1z M78,63h1v1h-1z M21,64h1v1h-1z M22,64h1v1h-1z M23,64h1v1h-1z M24,64h1v1h-1z M25,64h1v1h-1z M26,64h1v1h-1z M31,64h1v1h-1z M32,64h1v1h-1z M33,64h1v1h-1z M34,64h1v1h-1z M35,64h1v1h-1z M36,64h1v1h-1z M41,64h1v1h-1z M42,64h1v1h-1z M43,64h1v1h-1z M44,64h1v1h-1z M45,64h1v1h-1z M46,64h1v1h-1z M53,64h1v1h-1z M54,64h1v1h-1z M57,64h1v1h-1z M58,64h1v1h-1z M61,64h1v1h-1z M62,64h1v1h-1z M65,64h1v1h-1z M66,64h1v1h-1z M75,64h1v1h-1z M76,64h1v1h-1z M77,64h1v1h-1z M78,64h1v1h-1z M17,65h1v1h-1z M18,65h1v1h-1z M19,65h1v1h-1z M20,65h1v1h-1z M21,65h1v1h-1z M22,65h1v1h-1z M25,65h1v1h-1z M26,65h1v1h-1z M29,65h1v1h-1z M30,65h1v1h-1z M33,65h1v1h-1z M34,65h1v1h-1z M39,65h1v1h-1z M40,65h1v1h-1z M41,65h1v1h-1z M42,65h1v1h-1z M45,65h1v1h-1z M46,65h1v1h-1z M49,65h1v1h-1z M50,65h1v1h-1z M51,65h1v1h-1z M52,65h1v1h-1z M53,65h1v1h-1z M54,65h1v1h-1z M59,65h1v1h-1z M60,65h1v1h-1z M61,65h1v1h-1z M62,65h1v1h-1z M65,65h1v1h-1z M66,65h1v1h-1z M67,65h1v1h-1z M68,65h1v1h-1z M69,65h1v1h-1z M70,65h1v1h-1z M71,65h1v1h-1z M72,65h1v1h-1z M73,65h1v1h-1z M74,65h1v1h-1z M81,65h1v1h-1z M82,65h1v1h-1z M17,66h1v1h-1z M18,66h1v1h-1z M19,66h1v1h-1z M20,66h1v1h-1z M21,66h1v1h-1z M22,66h1v1h-1z M25,66h1v1h-1z M26,66h1v1h-1z M29,66h1v1h-1z M30,66h1v1h-1z M33,66h1v1h-1z M34,66h1v1h-1z M39,66h1v1h-1z M40,66h1v1h-1z M41,66h1v1h-1z M42,66h1v1h-1z M45,66h1v1h-1z M46,66h1v1h-1z M49,66h1v1h-1z M50,66h1v1h-1z M51,66h1v1h-1z M52,66h1v1h-1z M53,66h1v1h-1z M54,66h1v1h-1z M59,66h1v1h-1z M60,66h1v1h-1z M61,66h1v1h-1z M62,66h1v1h-1z M65,66h1v1h-1z M66,66h1v1h-1z M67,66h1v1h-1z M68,66h1v1h-1z M69,66h1v1h-1z M70,66h1v1h-1z M71,66h1v1h-1z M72,66h1v1h-1z M73,66h1v1h-1z M74,66h1v1h-1z M81,66h1v1h-1z M82,66h1v1h-1z M33,67h1v1h-1z M34,67h1v1h-1z M35,67h1v1h-1z M36,67h1v1h-1z M39,67h1v1h-1z M40,67h1v1h-1z M45,67h1v1h-1z M46,67h1v1h-1z M51,67h1v1h-1z M52,67h1v1h-1z M53,67h1v1h-1z M54,67h1v1h-1z M57,67h1v1h-1z M58,67h1v1h-1z M65,67h1v1h-1z M66,67h1v1h-1z M73,67h1v1h-1z M74,67h1v1h-1z M79,67h1v1h-1z M80,67h1v1h-1z M33,68h1v1h-1z M34,68h1v1h-1z M35,68h1v1h-1z M36,68h1v1h-1z M39,68h1v1h-1z M40,68h1v1h-1z M45,68h1v1h-1z M46,68h1v1h-1z M51,68h1v1h-1z M52,68h1v1h-1z M53,68h1v1h-1z M54,68h1v1h-1z M57,68h1v1h-1z M58,68h1v1h-1z M65,68h1v1h-1z M66,68h1v1h-1z M73,68h1v1h-1z M74,68h1v1h-1z M79,68h1v1h-1z M80,68h1v1h-1z M17,69h1v1h-1z M18,69h1v1h-1z M19,69h1v1h-1z M20,69h1v1h-1z M21,69h1v1h-1z M22,69h1v1h-1z M23,69h1v1h-1z M24,69h1v1h-1z M25,69h1v1h-1z M26,69h1v1h-1z M27,69h1v1h-1z M28,69h1v1h-1z M29,69h1v1h-1z M30,69h1v1h-1z M35,69h1v1h-1z M36,69h1v1h-1z M37,69h1v1h-1z M38,69h1v1h-1z M41,69h1v1h-1z M42,69h1v1h-1z M43,69h1v1h-1z M44,69h1v1h-1z M45,69h1v1h-1z M46,69h1v1h-1z M55,69h1v1h-1z M56,69h1v1h-1z M57,69h1v1h-1z M58,69h1v1h-1z M65,69h1v1h-1z M66,69h1v1h-1z M69,69h1v1h-1z M70,69h1v1h-1z M73,69h1v1h-1z M74,69h1v1h-1z M77,69h1v1h-1z M78,69h1v1h-1z M79,69h1v1h-1z M80,69h1v1h-1z M81,69h1v1h-1z M82,69h1v1h-1z M17,70h1v1h-1z M18,70h1v1h-1z M19,70h1v1h-1z M20,70h1v1h-1z M21,70h1v1h-1z M22,70h1v1h-1z M23,70h1v1h-1z M24,70h1v1h-1z M25,70h1v1h-1z M26,70h1v1h-1z M27,70h1v1h-1z M28,70h1v1h-1z M29,70h1v1h-1z M30,70h1v1h-1z M35,70h1v1h-1z M36,70h1v1h-1z M37,70h1v1h-1z M38,70h1v1h-1z M41,70h1v1h-1z M42,70h1v1h-1z M43,70h1v1h-1z M44,70h1v1h-1z M45,70h1v1h-1z M46,70h1v1h-1z M55,70h1v1h-1z M56,70h1v1h-1z M57,70h1v1h-1z M58,70h1v1h-1z M65,70h1v1h-1z M66,70h1v1h-1z M69,70h1v1h-1z M70,70h1v1h-1z M73,70h1v1h-1z M74,70h1v1h-1z M77,70h1v1h-1z M78,70h1v1h-1z M79,70h1v1h-1z M80,70h1v1h-1z M81,70h1v1h-1z M82,70h1v1h-1z M17,71h1v1h-1z M18,71h1v1h-1z M29,71h1v1h-1z M30,71h1v1h-1z M33,71h1v1h-1z M34,71h1v1h-1z M35,71h1v1h-1z M36,71h1v1h-1z M37,71h1v1h-1z M38,71h1v1h-1z M39,71h1v1h-1z M40,71h1v1h-1z M43,71h1v1h-1z M44,71h1v1h-1z M45,71h1v1h-1z M46,71h1v1h-1z M55,71h1v1h-1z M56,71h1v1h-1z M57,71h1v1h-1z M58,71h1v1h-1z M65,71h1v1h-1z M66,71h1v1h-1z M73,71h1v1h-1z M74,71h1v1h-1z M77,71h1v1h-1z M78,71h1v1h-1z M79,71h1v1h-1z M80,71h1v1h-1z M81,71h1v1h-1z M82,71h1v1h-1z M17,72h1v1h-1z M18,72h1v1h-1z M29,72h1v1h-1z M30,72h1v1h-1z M33,72h1v1h-1z M34,72h1v1h-1z M35,72h1v1h-1z M36,72h1v1h-1z M37,72h1v1h-1z M38,72h1v1h-1z M39,72h1v1h-1z M40,72h1v1h-1z M43,72h1v1h-1z M44,72h1v1h-1z M45,72h1v1h-1z M46,72h1v1h-1z M55,72h1v1h-1z M56,72h1v1h-1z M57,72h1v1h-1z M58,72h1v1h-1z M65,72h1v1h-1z M66,72h1v1h-1z M73,72h1v1h-1z M74,72h1v1h-1z M77,72h1v1h-1z M78,72h1v1h-1z M79,72h1v1h-1z M80,72h1v1h-1z M81,72h1v1h-1z M82,72h1v1h-1z M17,73h1v1h-1z M18,73h1v1h-1z M21,73h1v1h-1z M22,73h1v1h-1z M23,73h1v1h-1z M24,73h1v1h-1z M25,73h1v1h-1z M26,73h1v1h-1z M29,73h1v1h-1z M30,73h1v1h-1z M33,73h1v1h-1z M34,73h1v1h-1z M35,73h1v1h-1z M36,73h1v1h-1z M37,73h1v1h-1z M38,73h1v1h-1z M41,73h1v1h-1z M42,73h1v1h-1z M47,73h1v1h-1z M48,73h1v1h-1z M53,73h1v1h-1z M54,73h1v1h-1z M57,73h1v1h-1z M58,73h1v1h-1z M59,73h1v1h-1z M60,73h1v1h-1z M63,73h1v1h-1z M64,73h1v1h-1z M65,73h1v1h-1z M66,73h1v1h-1z M67,73h1v1h-1z M68,73h1v1h-1z M69,73h1v1h-1z M70,73h1v1h-1z M71,73h1v1h-1z M72,73h1v1h-1z M73,73h1v1h-1z M74,73h1v1h-1z M79,73h1v1h-1z M80,73h1v1h-1z M17,74h1v1h-1z M18,74h1v1h-1z M21,74h1v1h-1z M22,74h1v1h-1z M23,74h1v1h-1z M24,74h1v1h-1z M25,74h1v1h-1z M26,74h1v1h-1z M29,74h1v1h-1z M30,74h1v1h-1z M33,74h1v1h-1z M34,74h1v1h-1z M35,74h1v1h-1z M36,74h1v1h-1z M37,74h1v1h-1z M38,74h1v1h-1z M41,74h1v1h-1z M42,74h1v1h-1z M47,74h1v1h-1z M48,74h1v1h-1z M53,74h1v1h-1z M54,74h1v1h-1z M57,74h1v1h-1z M58,74h1v1h-1z M59,74h1v1h-1z M60,74h1v1h-1z M63,74h1v1h-1z M64,74h1v1h-1z M65,74h1v1h-1z M66,74h1v1h-1z M67,74h1v1h-1z M68,74h1v1h-1z M69,74h1v1h-1z M70,74h1v1h-1z M71,74h1v1h-1z M72,74h1v1h-1z M73,74h1v1h-1z M74,74h1v1h-1z M79,74h1v1h-1z M80,74h1v1h-1z M17,75h1v1h-1z M18,75h1v1h-1z M21,75h1v1h-1z M22,75h1v1h-1z M23,75h1v1h-1z M24,75h1v1h-1z M25,75h1v1h-1z M26,75h1v1h-1z M29,75h1v1h-1z M30,75h1v1h-1z M37,75h1v1h-1z M38,75h1v1h-1z M41,75h1v1h-1z M42,75h1v1h-1z M45,75h1v1h-1z M46,75h1v1h-1z M53,75h1v1h-1z M54,75h1v1h-1z M63,75h1v1h-1z M64,75h1v1h-1z M65,75h1v1h-1z M66,75h1v1h-1z M67,75h1v1h-1z M68,75h1v1h-1z M75,75h1v1h-1z M76,75h1v1h-1z M77,75h1v1h-1z M78,75h1v1h-1z M79,75h1v1h-1z M80,75h1v1h-1z M81,75h1v1h-1z M82,75h1v1h-1z M17,76h1v1h-1z M18,76h1v1h-1z M21,76h1v1h-1z M22,76h1v1h-1z M23,76h1v1h-1z M24,76h1v1h-1z M25,76h1v1h-1z M26,76h1v1h-1z M29,76h1v1h-1z M30,76h1v1h-1z M37,76h1v1h-1z M38,76h1v1h-1z M41,76h1v1h-1z M42,76h1v1h-1z M45,76h1v1h-1z M46,76h1v1h-1z M53,76h1v1h-1z M54,76h1v1h-1z M63,76h1v1h-1z M64,76h1v1h-1z M65,76h1v1h-1z M66,76h1v1h-1z M67,76h1v1h-1z M68,76h1v1h-1z M75,76h1v1h-1z M76,76h1v1h-1z M77,76h1v1h-1z M78,76h1v1h-1z M79,76h1v1h-1z M80,76h1v1h-1z M81,76h1v1h-1z M82,76h1v1h-1z M17,77h1v1h-1z M18,77h1v1h-1z M21,77h1v1h-1z M22,77h1v1h-1z M23,77h1v1h-1z M24,77h1v1h-1z M25,77h1v1h-1z M26,77h1v1h-1z M29,77h1v1h-1z M30,77h1v1h-1z M35,77h1v1h-1z M36,77h1v1h-1z M37,77h1v1h-1z M38,77h1v1h-1z M43,77h1v1h-1z M44,77h1v1h-1z M45,77h1v1h-1z M46,77h1v1h-1z M55,77h1v1h-1z M56,77h1v1h-1z M57,77h1v1h-1z M58,77h1v1h-1z M59,77h1v1h-1z M60,77h1v1h-1z M61,77h1v1h-1z M62,77h1v1h-1z M65,77h1v1h-1z M66,77h1v1h-1z M67,77h1v1h-1z M68,77h1v1h-1z M69,77h1v1h-1z M70,77h1v1h-1z M71,77h1v1h-1z M72,77h1v1h-1z M75,77h1v1h-1z M76,77h1v1h-1z M77,77h1v1h-1z M78,77h1v1h-1z M79,77h1v1h-1z M80,77h1v1h-1z M17,78h1v1h-1z M18,78h1v1h-1z M21,78h1v1h-1z M22,78h1v1h-1z M23,78h1v1h-1z M24,78h1v1h-1z M25,78h1v1h-1z M26,78h1v1h-1z M29,78h1v1h-1z M30,78h1v1h-1z M35,78h1v1h-1z M36,78h1v1h-1z M37,78h1v1h-1z M38,78h1v1h-1z M43,78h1v1h-1z M44,78h1v1h-1z M45,78h1v1h-1z M46,78h1v1h-1z M55,78h1v1h-1z M56,78h1v1h-1z M57,78h1v1h-1z M58,78h1v1h-1z M59,78h1v1h-1z M60,78h1v1h-1z M61,78h1v1h-1z M62,78h1v1h-1z M65,78h1v1h-1z M66,78h1v1h-1z M67,78h1v1h-1z M68,78h1v1h-1z M69,78h1v1h-1z M70,78h1v1h-1z M71,78h1v1h-1z M72,78h1v1h-1z M75,78h1v1h-1z M76,78h1v1h-1z M77,78h1v1h-1z M78,78h1v1h-1z M79,78h1v1h-1z M80,78h1v1h-1z M17,79h1v1h-1z M18,79h1v1h-1z M29,79h1v1h-1z M30,79h1v1h-1z M33,79h1v1h-1z M34,79h1v1h-1z M39,79h1v1h-1z M40,79h1v1h-1z M41,79h1v1h-1z M42,79h1v1h-1z M43,79h1v1h-1z M44,79h1v1h-1z M45,79h1v1h-1z M46,79h1v1h-1z M47,79h1v1h-1z M48,79h1v1h-1z M53,79h1v1h-1z M54,79h1v1h-1z M61,79h1v1h-1z M62,79h1v1h-1z M63,79h1v1h-1z M64,79h1v1h-1z M69,79h1v1h-1z M70,79h1v1h-1z M75,79h1v1h-1z M76,79h1v1h-1z M77,79h1v1h-1z M78,79h1v1h-1z M17,80h1v1h-1z M18,80h1v1h-1z M29,80h1v1h-1z M30,80h1v1h-1z M33,80h1v1h-1z M34,80h1v1h-1z M39,80h1v1h-1z M40,80h1v1h-1z M41,80h1v1h-1z M42,80h1v1h-1z M43,80h1v1h-1z M44,80h1v1h-1z M45,80h1v1h-1z M46,80h1v1h-1z M47,80h1v1h-1z M48,80h1v1h-1z M53,80h1v1h-1z M54,80h1v1h-1z M61,80h1v1h-1z M62,80h1v1h-1z M63,80h1v1h-1z M64,80h1v1h-1z M69,80h1v1h-1z M70,80h1v1h-1z M75,80h1v1h-1z M76,80h1v1h-1z M77,80h1v1h-1z M78,80h1v1h-1z M17,81h1v1h-1z M18,81h1v1h-1z M19,81h1v1h-1z M20,81h1v1h-1z M21,81h1v1h-1z M22,81h1v1h-1z M23,81h1v1h-1z M24,81h1v1h-1z M25,81h1v1h-1z M26,81h1v1h-1z M27,81h1v1h-1z M28,81h1v1h-1z M29,81h1v1h-1z M30,81h1v1h-1z M33,81h1v1h-1z M34,81h1v1h-1z M35,81h1v1h-1z M36,81h1v1h-1z M37,81h1v1h-1z M38,81h1v1h-1z M39,81h1v1h-1z M40,81h1v1h-1z M45,81h1v1h-1z M46,81h1v1h-1z M51,81h1v1h-1z M52,81h1v1h-1z M55,81h1v1h-1z M56,81h1v1h-1z M57,81h1v1h-1z M58,81h1v1h-1z M67,81h1v1h-1z M68,81h1v1h-1z M69,81h1v1h-1z M70,81h1v1h-1z M71,81h1v1h-1z M72,81h1v1h-1z M73,81h1v1h-1z M74,81h1v1h-1z M77,81h1v1h-1z M78,81h1v1h-1z M81,81h1v1h-1z M82,81h1v1h-1z M17,82h1v1h-1z M18,82h1v1h-1z M19,82h1v1h-1z M20,82h1v1h-1z M21,82h1v1h-1z M22,82h1v1h-1z M23,82h1v1h-1z M24,82h1v1h-1z M25,82h1v1h-1z M26,82h1v1h-1z M27,82h1v1h-1z M28,82h1v1h-1z M29,82h1v1h-1z M30,82h1v1h-1z M33,82h1v1h-1z M34,82h1v1h-1z M35,82h1v1h-1z M36,82h1v1h-1z M37,82h1v1h-1z M38,82h1v1h-1z M39,82h1v1h-1z M40,82h1v1h-1z M45,82h1v1h-1z M46,82h1v1h-1z M51,82h1v1h-1z M52,82h1v1h-1z M55,82h1v1h-1z M56,82h1v1h-1z M57,82h1v1h-1z M58,82h1v1h-1z M67,82h1v1h-1z M68,82h1v1h-1z M69,82h1v1h-1z M70,82h1v1h-1z M71,82h1v1h-1z M72,82h1v1h-1z M73,82h1v1h-1z M74,82h1v1h-1z M77,82h1v1h-1z M78,82h1v1h-1z M81,82h1v1h-1z M82,82h1v1h-1z"/>
</svg>
